<svg width="16" height="22" viewBox="0 0 16 22" fill="none" xmlns="http://www.w3.org/2000/svg">
<g clip-path="url(#clip0_130_3059)">
<path d="M10.6539 16.5775C10.5428 16.6887 10.4108 16.7769 10.2656 16.8371C10.1203 16.8973 9.96464 16.9283 9.80741 16.9283C9.65019 16.9283 9.4945 16.8973 9.34925 16.8371C9.204 16.7769 9.07203 16.6887 8.96088 16.5775L2.07441 9.69215C1.08118 8.67865 0.528058 7.31414 0.535225 5.89512C0.542392 4.47611 1.10927 3.11725 2.11268 2.11384C3.11609 1.11043 4.47495 0.543552 5.89396 0.536385C7.31298 0.529218 8.67749 1.08234 9.69099 2.07557L14.0433 6.4279C14.2673 6.65299 14.3926 6.95782 14.3918 7.27533C14.391 7.59284 14.2641 7.89702 14.039 8.12096C13.8139 8.34489 13.509 8.47024 13.1915 8.46942C12.874 8.46861 12.5698 8.34169 12.3459 8.1166L7.99902 3.76427C7.43745 3.2027 6.67579 2.88721 5.88161 2.88721C5.08743 2.88721 4.32577 3.2027 3.7642 3.76427C3.20263 4.32584 2.88714 5.0875 2.88714 5.88168C2.88714 6.67586 3.20263 7.43752 3.7642 7.99909L10.6507 14.8856C10.8754 15.1096 11.0019 15.4136 11.0025 15.7309C11.0031 16.0481 10.8778 16.3527 10.6539 16.5775Z" fill="white"/>
<path d="M14.0007 19.9245C12.9898 20.9329 11.6203 21.4991 10.1925 21.4991C8.76462 21.4991 7.39507 20.9329 6.38416 19.9245L2.03727 15.5722C1.91664 15.4634 1.81943 15.3311 1.75156 15.1835C1.68369 15.0359 1.64657 14.8761 1.64247 14.7136C1.63837 14.5512 1.66738 14.3897 1.72772 14.2389C1.78807 14.088 1.87848 13.9511 1.99347 13.8363C2.10845 13.7215 2.2456 13.6314 2.39655 13.5713C2.54749 13.5113 2.70909 13.4826 2.87148 13.487C3.03388 13.4914 3.19368 13.5288 3.34114 13.597C3.48861 13.6652 3.62066 13.7626 3.72924 13.8835L8.07613 18.2358C8.63856 18.7907 9.39765 19.1007 10.1878 19.0981C10.9779 19.0954 11.7349 18.7804 12.2936 18.2217C12.8523 17.663 13.1673 16.906 13.1699 16.1159C13.1726 15.3258 12.8626 14.5667 12.3077 14.0042L5.42121 7.1145C5.1967 6.88999 5.07057 6.58548 5.07057 6.26797C5.07057 5.95046 5.1967 5.64596 5.42121 5.42144C5.64572 5.19693 5.95023 5.0708 6.26774 5.0708C6.58525 5.0708 6.88975 5.19693 7.11427 5.42144L14.0007 12.3079C15.0094 13.3187 15.5758 14.6883 15.5758 16.1162C15.5758 17.5441 15.0094 18.9137 14.0007 19.9245Z" fill="white"/>
</g>
<defs>
<clipPath id="clip0_130_3059">
<rect width="15.0754" height="21" fill="white" transform="translate(0.5 0.5)"/>
</clipPath>
</defs>
</svg>
