<svg width="319" height="284" viewBox="0 0 319 284" fill="none" xmlns="http://www.w3.org/2000/svg">
<rect width="319" height="284" rx="7.87654" fill="#FAFAFA"/>
<g opacity="0.4" clip-path="url(#clip0_138_6087)">
<path d="M300.621 125.368H21.0039" stroke="#B2B6B8" stroke-width="0.656379" stroke-dasharray="6.56 6.56"/>
<path d="M300.621 158.844H21.0039" stroke="#B2B6B8" stroke-width="0.656379" stroke-dasharray="6.56 6.56"/>
<path d="M300.621 192.319H21.0039" stroke="#B2B6B8" stroke-width="0.656379" stroke-dasharray="6.56 6.56"/>
<path d="M300.621 225.794H21.0039" stroke="#B2B6B8" stroke-width="0.656379" stroke-dasharray="6.56 6.56"/>
<path d="M300.621 259.27H21.0039" stroke="#B2B6B8" stroke-width="0.656379" stroke-dasharray="6.56 6.56"/>
</g>
<path d="M27.8565 84.4987H29.865V82.372C30.9047 82.2775 31.8184 82.0018 32.6061 81.545C33.3937 81.0724 34.0081 80.4738 34.4492 79.7491C34.8903 79.0245 35.1108 78.1975 35.1108 77.268C35.1108 74.9208 33.7088 73.2983 30.9047 72.4003L29.865 72.0695V67.2727C31.078 67.6823 31.9365 68.533 32.4406 69.8247L35.0872 68.6432C34.6933 67.5248 34.0317 66.5874 33.1023 65.8313C32.1886 65.0751 31.1095 64.5868 29.865 64.3663V62.1687H27.8565V64.2717C26.8168 64.3505 25.8952 64.6183 25.0918 65.0751C24.3042 65.5162 23.6898 66.107 23.2487 66.8474C22.8076 67.5878 22.5871 68.4306 22.5871 69.3757C22.5871 70.5257 22.9337 71.526 23.6268 72.3767C24.3199 73.2116 25.3518 73.8496 26.7223 74.2907L27.8565 74.6451V79.4183C27.1476 79.2293 26.5096 78.8749 25.9425 78.355C25.3754 77.8194 24.9264 77.1578 24.5956 76.3701L21.9255 77.528C22.3508 78.8197 23.0912 79.8988 24.1466 80.7652C25.2021 81.6159 26.4387 82.1436 27.8565 82.3484V84.4987ZM27.6675 71.3843C27.0373 71.1795 26.5569 70.8959 26.2261 70.5336C25.911 70.1555 25.7535 69.7223 25.7535 69.234C25.7535 68.6669 25.9425 68.1943 26.3206 67.8162C26.6986 67.4381 27.2106 67.2018 27.8565 67.1073V71.4551L27.6675 71.3843ZM30.1013 75.3777C30.7157 75.5825 31.1725 75.8503 31.4718 76.1811C31.7869 76.5119 31.9444 76.9372 31.9444 77.4571C31.9444 78.0084 31.7554 78.4731 31.3773 78.8512C30.9992 79.2135 30.4951 79.4498 29.865 79.5601V75.3068L30.1013 75.3777ZM36.6812 82.1357H48.4961V79.4183H40.8637L44.9989 75.0705C46.1173 73.9048 46.9365 72.8729 47.4564 71.975C47.992 71.0771 48.2598 70.1476 48.2598 69.1867C48.2598 68.21 48.0156 67.3515 47.5272 66.6111C47.0547 65.8707 46.3851 65.2957 45.5187 64.8861C44.6681 64.4608 43.6756 64.2481 42.5414 64.2481C41.5962 64.2481 40.6983 64.4371 39.8476 64.8152C39.0127 65.1775 38.3038 65.7053 37.7209 66.3984C37.1381 67.0758 36.7521 67.8792 36.5631 68.8086L39.375 69.6829C39.6271 68.848 40.0288 68.2179 40.5801 67.7926C41.1315 67.3515 41.7852 67.1309 42.5414 67.1309C43.266 67.1309 43.8568 67.3436 44.3136 67.7689C44.7862 68.1943 45.0225 68.7771 45.0225 69.5175C45.0225 69.9586 44.9201 70.3918 44.7153 70.8171C44.5105 71.2425 44.1482 71.7545 43.6284 72.3531C43.1085 72.9517 42.3839 73.7393 41.4544 74.716L36.6812 79.7019V82.1357ZM56.0027 82.4193C57.2157 82.4193 58.2948 82.1594 59.24 81.6395C60.1852 81.1039 60.9256 80.3871 61.4612 79.4892C62.0125 78.5755 62.2882 77.5516 62.2882 76.4174C62.2882 75.2989 62.0519 74.3065 61.5793 73.44C61.1067 72.5579 60.4372 71.8647 59.5708 71.3606C58.7201 70.8565 57.7119 70.6045 56.5462 70.6045C55.4277 70.6045 54.5062 70.8329 53.7815 71.2897L54.325 67.2491H61.6266V64.5317H52.0329L50.6388 74.3143L53.2617 74.9051C53.4822 74.401 53.8367 74.015 54.325 73.7472C54.8291 73.4794 55.3883 73.3455 56.0027 73.3455C56.9006 73.3455 57.6332 73.6291 58.2003 74.1962C58.7674 74.7633 59.0509 75.5037 59.0509 76.4174C59.0509 77.3311 58.7674 78.0793 58.2003 78.6622C57.6332 79.2293 56.9006 79.5129 56.0027 79.5129C55.2781 79.5129 54.6164 79.3159 54.0178 78.9221C53.4192 78.5283 52.986 77.9375 52.7182 77.1499L49.9299 78.1423C50.1504 79.0245 50.56 79.7885 51.1586 80.4344C51.773 81.0803 52.4977 81.5765 53.3326 81.9231C54.1832 82.2539 55.0733 82.4193 56.0027 82.4193ZM65.2474 85.822C67.6419 85.3179 68.8391 83.6638 68.8391 80.8597V78.8276H65.72V82.1357H67.1142C66.9724 83.3015 66.3502 84.0182 65.2474 84.286V85.822ZM72.2518 82.1357H75.7962L82.956 67.2491V64.5317H71.283V67.2491H79.577L72.2518 82.1357ZM90.5079 82.4193C91.7839 82.4193 92.8866 82.183 93.816 81.7104C94.7612 81.2221 95.4859 80.5762 95.99 79.7728C96.5098 78.9536 96.7697 78.0557 96.7697 77.079C96.7697 76.1023 96.5413 75.2595 96.0845 74.5506C95.6434 73.826 94.9975 73.2352 94.1468 72.7784C94.7455 72.3846 95.2102 71.8647 95.541 71.2189C95.8718 70.5572 96.0372 69.8326 96.0372 69.0449C96.0372 68.1155 95.8009 67.2885 95.3283 66.5638C94.8557 65.8392 94.202 65.2721 93.3671 64.8625C92.5322 64.4529 91.5791 64.2481 90.5079 64.2481C89.4209 64.2481 88.46 64.4608 87.6251 64.8861C86.7902 65.2957 86.1364 65.8628 85.6638 66.5874C85.1912 67.2963 84.9549 68.1155 84.9549 69.0449C84.9549 69.8168 85.1203 70.5415 85.4511 71.2189C85.782 71.8962 86.2546 72.4161 86.8689 72.7784C85.1203 73.6921 84.246 75.1177 84.246 77.0554C84.246 78.0321 84.4981 78.93 85.0022 79.7491C85.522 80.5683 86.2467 81.2221 87.1761 81.7104C88.1213 82.183 89.2319 82.4193 90.5079 82.4193ZM90.5079 71.526C89.8147 71.526 89.2476 71.3134 88.8066 70.888C88.3812 70.447 88.1686 69.8956 88.1686 69.234C88.1686 68.5881 88.3812 68.0525 88.8066 67.6271C89.2476 67.1861 89.8147 66.9655 90.5079 66.9655C91.201 66.9655 91.7603 67.1861 92.1856 67.6271C92.6109 68.0525 92.8236 68.5881 92.8236 69.234C92.8236 69.8956 92.6109 70.447 92.1856 70.888C91.7603 71.3134 91.201 71.526 90.5079 71.526ZM90.5079 79.7019C89.5942 79.7019 88.8617 79.4498 88.3103 78.9457C87.759 78.4416 87.4833 77.78 87.4833 76.9609C87.4833 76.1417 87.759 75.4879 88.3103 74.9996C88.8617 74.4955 89.5942 74.2434 90.5079 74.2434C91.4216 74.2434 92.1541 74.4955 92.7054 74.9996C93.2726 75.4879 93.5561 76.1417 93.5561 76.9609C93.5561 77.78 93.2726 78.4416 92.7054 78.9457C92.1541 79.4498 91.4216 79.7019 90.5079 79.7019ZM105.627 82.4193C107.045 82.4193 108.281 82.0412 109.337 81.2851C110.392 80.5132 111.211 79.4498 111.794 78.0951C112.393 76.7246 112.692 75.1335 112.692 73.3219C112.692 71.5103 112.393 69.9271 111.794 68.5723C111.211 67.2018 110.384 66.1385 109.313 65.3823C108.258 64.6262 107.021 64.2481 105.603 64.2481C104.217 64.2481 102.996 64.6262 101.941 65.3823C100.885 66.1385 100.058 67.1939 99.4596 68.5487C98.8768 69.9035 98.5853 71.4945 98.5853 73.3219C98.5853 75.1335 98.8768 76.7246 99.4596 78.0951C100.058 79.4656 100.885 80.5289 101.941 81.2851C103.012 82.0412 104.241 82.4193 105.627 82.4193ZM105.627 79.4892C104.43 79.4892 103.492 78.9379 102.815 77.8351C102.138 76.7324 101.799 75.228 101.799 73.3219C101.799 71.4 102.13 69.8956 102.791 68.8086C103.469 67.7217 104.406 67.1782 105.603 67.1782C106.816 67.1782 107.762 67.7295 108.439 68.8323C109.132 69.9192 109.479 71.4158 109.479 73.3219C109.479 75.228 109.14 76.7324 108.463 77.8351C107.785 78.9379 106.84 79.4892 105.627 79.4892ZM116.19 82.1357H119.309V78.8276H116.19V82.1357ZM129.869 82.4193C131.287 82.4193 132.524 82.0412 133.579 81.2851C134.635 80.5132 135.454 79.4498 136.037 78.0951C136.635 76.7246 136.935 75.1335 136.935 73.3219C136.935 71.5103 136.635 69.9271 136.037 68.5723C135.454 67.2018 134.627 66.1385 133.556 65.3823C132.5 64.6262 131.264 64.2481 129.846 64.2481C128.46 64.2481 127.239 64.6262 126.183 65.3823C125.128 66.1385 124.301 67.1939 123.702 68.5487C123.119 69.9035 122.828 71.4945 122.828 73.3219C122.828 75.1335 123.119 76.7246 123.702 78.0951C124.301 79.4656 125.128 80.5289 126.183 81.2851C127.254 82.0412 128.483 82.4193 129.869 82.4193ZM129.869 79.4892C128.672 79.4892 127.735 78.9379 127.058 77.8351C126.38 76.7324 126.041 75.228 126.041 73.3219C126.041 71.4 126.372 69.8956 127.034 68.8086C127.711 67.7217 128.649 67.1782 129.846 67.1782C131.059 67.1782 132.004 67.7295 132.681 68.8323C133.375 69.9192 133.721 71.4158 133.721 73.3219C133.721 75.228 133.382 76.7324 132.705 77.8351C132.028 78.9379 131.082 79.4892 129.869 79.4892ZM145.891 82.4193C147.308 82.4193 148.545 82.0412 149.6 81.2851C150.656 80.5132 151.475 79.4498 152.058 78.0951C152.657 76.7246 152.956 75.1335 152.956 73.3219C152.956 71.5103 152.657 69.9271 152.058 68.5723C151.475 67.2018 150.648 66.1385 149.577 65.3823C148.521 64.6262 147.285 64.2481 145.867 64.2481C144.481 64.2481 143.26 64.6262 142.204 65.3823C141.149 66.1385 140.322 67.1939 139.723 68.5487C139.14 69.9035 138.849 71.4945 138.849 73.3219C138.849 75.1335 139.14 76.7246 139.723 78.0951C140.322 79.4656 141.149 80.5289 142.204 81.2851C143.276 82.0412 144.504 82.4193 145.891 82.4193ZM145.891 79.4892C144.693 79.4892 143.756 78.9379 143.079 77.8351C142.401 76.7324 142.063 75.228 142.063 73.3219C142.063 71.4 142.393 69.8956 143.055 68.8086C143.732 67.7217 144.67 67.1782 145.867 67.1782C147.08 67.1782 148.025 67.7295 148.702 68.8323C149.396 69.9192 149.742 71.4158 149.742 73.3219C149.742 75.228 149.404 76.7324 148.726 77.8351C148.049 78.9379 147.104 79.4892 145.891 79.4892Z" fill="#1A202C"/>
<path d="M185.833 75.3956L185.342 81.0087L179.729 80.5176" stroke="#DB2719" stroke-width="1.64095" stroke-miterlimit="10" stroke-linecap="round" stroke-linejoin="round"/>
<path d="M178.17 72.4609L185.271 80.9233" stroke="#DB2719" stroke-width="1.64095" stroke-miterlimit="10" stroke-linecap="round" stroke-linejoin="round"/>
<path d="M200.441 81.5745H202.2V79.4215H203.631V77.925H202.2V71.7944H200.336L195.951 77.925V79.4215H200.441V81.5745ZM200.441 77.925H197.71L200.441 73.9999V77.925ZM207.573 81.732C208.247 81.732 208.846 81.5876 209.371 81.2988C209.896 81.0012 210.308 80.603 210.605 80.1042C210.912 79.5966 211.065 79.0277 211.065 78.3976C211.065 77.7762 210.934 77.2249 210.671 76.7435C210.408 76.2534 210.037 75.8683 209.555 75.5883C209.083 75.3082 208.522 75.1682 207.875 75.1682C207.253 75.1682 206.741 75.2951 206.339 75.5489L206.641 73.3041H210.697V71.7944H205.367L204.593 77.2292L206.05 77.5574C206.173 77.2774 206.37 77.063 206.641 76.9142C206.921 76.7654 207.232 76.691 207.573 76.691C208.072 76.691 208.479 76.8485 208.794 77.1636C209.109 77.4787 209.266 77.89 209.266 78.3976C209.266 78.9052 209.109 79.3209 208.794 79.6447C208.479 79.9598 208.072 80.1173 207.573 80.1173C207.17 80.1173 206.803 80.0079 206.47 79.7891C206.138 79.5703 205.897 79.2421 205.748 78.8045L204.199 79.3559C204.322 79.846 204.549 80.2705 204.882 80.6293C205.223 80.9881 205.626 81.2638 206.089 81.4563C206.562 81.6401 207.057 81.732 207.573 81.732ZM212.709 83.6224C214.039 83.3423 214.704 82.4234 214.704 80.8656V79.7366H212.971V81.5745H213.746C213.667 82.2221 213.321 82.6203 212.709 82.7691V83.6224ZM219.62 81.732C220.276 81.732 220.858 81.592 221.365 81.3119C221.882 81.0231 222.284 80.6337 222.573 80.1436C222.862 79.6447 223.006 79.0802 223.006 78.4501C223.006 77.855 222.871 77.3255 222.599 76.8617C222.337 76.3978 221.974 76.0303 221.51 75.7589C221.046 75.4876 220.517 75.352 219.921 75.352C219.781 75.352 219.65 75.3607 219.528 75.3782L222.324 71.7944H220.197L217.467 75.3389C217.134 75.7765 216.876 76.1747 216.692 76.5335C216.508 76.8923 216.381 77.2292 216.311 77.5443C216.25 77.8594 216.219 78.1744 216.219 78.4895C216.219 79.1109 216.364 79.6666 216.653 80.1567C216.941 80.6468 217.34 81.0319 217.847 81.3119C218.364 81.592 218.954 81.732 219.62 81.732ZM219.62 80.1173C219.164 80.1173 218.779 79.9641 218.464 79.6578C218.158 79.3515 218.005 78.9577 218.005 78.4764C218.005 77.9863 218.158 77.5924 218.464 77.2949C218.779 76.9886 219.164 76.8354 219.62 76.8354C220.075 76.8354 220.455 76.9886 220.762 77.2949C221.068 77.5924 221.221 77.9863 221.221 78.4764C221.221 78.9577 221.064 79.3515 220.748 79.6578C220.442 79.9641 220.066 80.1173 219.62 80.1173ZM228.642 76.7566C229.123 76.7566 229.557 76.6429 229.942 76.4153C230.327 76.179 230.633 75.8683 230.861 75.4833C231.088 75.0982 231.202 74.6694 231.202 74.1968C231.202 73.7242 231.088 73.2953 230.861 72.9103C230.633 72.5164 230.327 72.2058 229.942 71.9782C229.557 71.7507 229.123 71.6369 228.642 71.6369C228.161 71.6369 227.723 71.7507 227.329 71.9782C226.935 72.2058 226.625 72.5164 226.397 72.9103C226.17 73.2953 226.056 73.7242 226.056 74.1968C226.056 74.6694 226.17 75.0982 226.397 75.4833C226.625 75.8683 226.935 76.179 227.329 76.4153C227.723 76.6429 228.161 76.7566 228.642 76.7566ZM227.106 81.5745H228.944L236.873 71.7944H235.035L227.106 81.5745ZM228.642 75.4308C228.266 75.4308 227.968 75.3039 227.749 75.0501C227.539 74.7963 227.434 74.5118 227.434 74.1968C227.434 73.8817 227.539 73.5973 227.749 73.3435C227.968 73.0809 228.266 72.9496 228.642 72.9496C229.018 72.9496 229.307 73.0809 229.508 73.3435C229.719 73.5973 229.824 73.8817 229.824 74.1968C229.824 74.5118 229.719 74.7963 229.508 75.0501C229.307 75.3039 229.018 75.4308 228.642 75.4308ZM235.298 81.732C235.779 81.732 236.212 81.6182 236.597 81.3907C236.991 81.1544 237.302 80.8437 237.529 80.4586C237.757 80.0735 237.871 79.6447 237.871 79.1721C237.871 78.6995 237.757 78.2707 237.529 77.8856C237.302 77.4918 236.991 77.1811 236.597 76.9536C236.212 76.726 235.779 76.6122 235.298 76.6122C234.816 76.6122 234.379 76.726 233.985 76.9536C233.6 77.1811 233.294 77.4918 233.066 77.8856C232.838 78.2707 232.725 78.6995 232.725 79.1721C232.725 79.6447 232.838 80.0735 233.066 80.4586C233.294 80.8437 233.6 81.1544 233.985 81.3907C234.379 81.6182 234.816 81.732 235.298 81.732ZM235.298 80.4061C234.921 80.4061 234.628 80.2792 234.418 80.0254C234.208 79.7716 234.103 79.4872 234.103 79.1721C234.103 78.8571 234.208 78.5726 234.418 78.3188C234.628 78.0563 234.921 77.925 235.298 77.925C235.674 77.925 235.967 78.0563 236.177 78.3188C236.387 78.5726 236.492 78.8571 236.492 79.1721C236.492 79.4872 236.387 79.7716 236.177 80.0254C235.967 80.2792 235.674 80.4061 235.298 80.4061Z" fill="#DB2719"/>
<path d="M285.525 29.5369C284.803 29.5369 284.212 30.1276 284.212 30.8496C284.212 31.5716 284.803 32.1624 285.525 32.1624C286.247 32.1624 286.837 31.5716 286.837 30.8496C286.837 30.1276 286.247 29.5369 285.525 29.5369Z" stroke="#90A3BF" stroke-width="0.984568"/>
<path d="M294.714 29.5369C293.992 29.5369 293.401 30.1276 293.401 30.8496C293.401 31.5716 293.992 32.1624 294.714 32.1624C295.436 32.1624 296.026 31.5716 296.026 30.8496C296.026 30.1276 295.436 29.5369 294.714 29.5369Z" stroke="#90A3BF" stroke-width="0.984568"/>
<path d="M290.119 29.5369C289.397 29.5369 288.807 30.1276 288.807 30.8496C288.807 31.5716 289.397 32.1624 290.119 32.1624C290.841 32.1624 291.432 31.5716 291.432 30.8496C291.432 30.1276 290.841 29.5369 290.119 29.5369Z" stroke="#90A3BF" stroke-width="0.984568"/>
<path d="M22.0147 36.0042H26.1499C27.1914 36.0042 28.0097 35.746 28.6048 35.2296C29.2086 34.7045 29.5106 33.9781 29.5106 33.0504C29.5106 32.5866 29.4099 32.1534 29.2086 31.7508C29.0074 31.3482 28.6792 31.0069 28.2241 30.7269C28.5216 30.4993 28.7404 30.228 28.8805 29.913C29.0292 29.5891 29.1036 29.2434 29.1036 28.8759C29.1036 28.062 28.8367 27.4187 28.3028 26.9461C27.7777 26.4648 27.0557 26.2241 26.1368 26.2241H22.0147V36.0042ZM23.5638 30.123V27.5631H26.1762C26.5963 27.5631 26.9332 27.6769 27.187 27.9044C27.4408 28.1232 27.5677 28.4252 27.5677 28.8102C27.5677 29.1953 27.4408 29.5104 27.187 29.7554C26.9332 30.0005 26.5963 30.123 26.1762 30.123H23.5638ZM23.5638 34.6258V31.4883H26.2681C26.7844 31.4883 27.1957 31.6327 27.5021 31.9215C27.8084 32.2015 27.9615 32.5822 27.9615 33.0636C27.9615 33.5449 27.8084 33.9256 27.5021 34.2057C27.1957 34.4857 26.7844 34.6258 26.2681 34.6258H23.5638ZM32.8237 36.1617C33.3138 36.1617 33.7558 36.0785 34.1496 35.9123C34.5435 35.7372 34.8716 35.4922 35.1342 35.1771V36.0042H36.552V31.2257C36.552 30.7356 36.4295 30.3068 36.1844 29.9392C35.9394 29.5629 35.6024 29.2697 35.1736 29.0597C34.7447 28.8496 34.2503 28.7446 33.6902 28.7446C33.2438 28.7446 32.8194 28.8234 32.4168 28.9809C32.023 29.1297 31.6773 29.3353 31.3797 29.5979C31.0909 29.8604 30.8765 30.1668 30.7365 30.5168L31.9705 31.1338C32.1105 30.8013 32.3249 30.5343 32.6137 30.333C32.9113 30.1317 33.257 30.0311 33.6508 30.0311C34.0796 30.0311 34.4209 30.1449 34.6747 30.3724C34.9373 30.5912 35.0686 30.8756 35.0686 31.2257V31.5014L32.8106 31.869C31.988 32.009 31.3797 32.2803 30.9859 32.6829C30.6008 33.0767 30.4083 33.558 30.4083 34.1269C30.4083 34.7395 30.6314 35.234 31.0778 35.6103C31.5241 35.9779 32.1061 36.1617 32.8237 36.1617ZM31.9573 34.0744C31.9573 33.7943 32.0492 33.5624 32.233 33.3786C32.4168 33.1948 32.7056 33.0723 33.0994 33.0111L35.0686 32.6697V33.0504C35.0686 33.4093 34.981 33.7375 34.806 34.035C34.6397 34.3326 34.4078 34.5689 34.1102 34.7439C33.8127 34.9102 33.4626 34.9933 33.06 34.9933C32.7362 34.9933 32.4693 34.9102 32.2593 34.7439C32.058 34.5689 31.9573 34.3457 31.9573 34.0744ZM38.0239 36.0042H39.5073V26.0666H38.0239V36.0042ZM43.1058 36.1617C43.5959 36.1617 44.0379 36.0785 44.4317 35.9123C44.8255 35.7372 45.1537 35.4922 45.4163 35.1771V36.0042H46.834V31.2257C46.834 30.7356 46.7115 30.3068 46.4665 29.9392C46.2214 29.5629 45.8845 29.2697 45.4557 29.0597C45.0268 28.8496 44.5323 28.7446 43.9722 28.7446C43.5259 28.7446 43.1014 28.8234 42.6989 28.9809C42.305 29.1297 41.9593 29.3353 41.6618 29.5979C41.373 29.8604 41.1586 30.1668 41.0185 30.5168L42.2525 31.1338C42.3926 30.8013 42.607 30.5343 42.8958 30.333C43.1933 30.1317 43.539 30.0311 43.9329 30.0311C44.3617 30.0311 44.703 30.1449 44.9568 30.3724C45.2194 30.5912 45.3506 30.8756 45.3506 31.2257V31.5014L43.0927 31.869C42.27 32.009 41.6618 32.2803 41.268 32.6829C40.8829 33.0767 40.6903 33.558 40.6903 34.1269C40.6903 34.7395 40.9135 35.234 41.3598 35.6103C41.8062 35.9779 42.3882 36.1617 43.1058 36.1617ZM42.2394 34.0744C42.2394 33.7943 42.3313 33.5624 42.5151 33.3786C42.6989 33.1948 42.9877 33.0723 43.3815 33.0111L45.3506 32.6697V33.0504C45.3506 33.4093 45.2631 33.7375 45.0881 34.035C44.9218 34.3326 44.6899 34.5689 44.3923 34.7439C44.0948 34.9102 43.7447 34.9933 43.3421 34.9933C43.0183 34.9933 42.7514 34.9102 42.5413 34.7439C42.34 34.5689 42.2394 34.3457 42.2394 34.0744ZM48.306 36.0042H49.7894V31.8165C49.7894 31.2914 49.9382 30.88 50.2357 30.5825C50.5333 30.2762 50.9096 30.123 51.3647 30.123C51.8285 30.123 52.2049 30.2762 52.4937 30.5825C52.7912 30.88 52.94 31.2914 52.94 31.8165V36.0042H54.4103V31.4095C54.4103 30.8844 54.2921 30.4249 54.0559 30.0311C53.8283 29.6285 53.5132 29.3135 53.1107 29.0859C52.7081 28.8584 52.2486 28.7446 51.7323 28.7446C51.2947 28.7446 50.9009 28.8321 50.5508 29.0072C50.2007 29.1822 49.925 29.436 49.7238 29.7686V28.9021H48.306V36.0042ZM59.1091 36.1617C59.5992 36.1617 60.0543 36.0742 60.4744 35.8991C60.8945 35.7241 61.2577 35.4878 61.564 35.1902C61.8791 34.8839 62.1066 34.5426 62.2466 34.1663L60.947 33.5493C60.7895 33.9256 60.5488 34.2276 60.225 34.4551C59.9099 34.6739 59.538 34.7833 59.1091 34.7833C58.7066 34.7833 58.3434 34.6826 58.0196 34.4814C57.7045 34.2801 57.4551 34.0044 57.2713 33.6543C57.0875 33.2955 56.9956 32.8929 56.9956 32.4466C56.9956 31.9915 57.0875 31.5933 57.2713 31.252C57.4551 30.9019 57.7045 30.6262 58.0196 30.4249C58.3434 30.2236 58.7066 30.123 59.1091 30.123C59.538 30.123 59.9143 30.2368 60.2381 30.4643C60.5619 30.6831 60.7982 30.9763 60.947 31.3439L62.2466 30.74C62.0979 30.3462 61.8659 30.0005 61.5509 29.7029C61.2446 29.3966 60.8814 29.1603 60.4613 28.994C60.0412 28.8277 59.5905 28.7446 59.1091 28.7446C58.4003 28.7446 57.7701 28.9065 57.2188 29.2303C56.6674 29.5454 56.2342 29.983 55.9191 30.5431C55.6041 31.0944 55.4466 31.7246 55.4466 32.4335C55.4466 33.1423 55.6041 33.7768 55.9191 34.3369C56.2342 34.8971 56.6674 35.3434 57.2188 35.676C57.7701 35.9998 58.4003 36.1617 59.1091 36.1617ZM66.7684 36.1617C67.4948 36.1617 68.1249 35.9954 68.6587 35.6628C69.2013 35.3303 69.582 34.9102 69.8008 34.4026L68.5931 33.8118C68.4181 34.1094 68.1774 34.3588 67.8711 34.5601C67.5735 34.7527 67.2103 34.8489 66.7815 34.8489C66.2214 34.8489 65.7444 34.6739 65.3506 34.3238C64.9568 33.965 64.738 33.4837 64.6942 32.8798H69.9715C69.9978 32.7748 70.0153 32.661 70.024 32.5385C70.0328 32.4159 70.0371 32.2978 70.0371 32.184C70.0371 31.5714 69.9015 31.0069 69.6302 30.4906C69.3676 29.9655 68.9826 29.5454 68.475 29.2303C67.9761 28.9065 67.3679 28.7446 66.6502 28.7446C65.9851 28.7446 65.3856 28.9065 64.8517 29.2303C64.3266 29.5454 63.9109 29.983 63.6046 30.5431C63.2983 31.0944 63.1452 31.7246 63.1452 32.4335C63.1452 33.1336 63.2983 33.7681 63.6046 34.3369C63.9197 34.8971 64.3485 35.3434 64.8911 35.676C65.4337 35.9998 66.0595 36.1617 66.7684 36.1617ZM66.6502 29.9917C67.1491 29.9917 67.5692 30.1493 67.9105 30.4643C68.2518 30.7794 68.4356 31.1907 68.4618 31.6983H64.7205C64.808 31.1557 65.0312 30.7356 65.39 30.4381C65.7488 30.1405 66.1689 29.9917 66.6502 29.9917ZM76.8252 36.1617C77.4816 36.1617 78.0592 36.0435 78.5581 35.8072C79.0657 35.5709 79.4595 35.2428 79.7395 34.8227C80.0196 34.3938 80.1596 33.9081 80.1596 33.3655C80.1596 32.079 79.3763 31.1907 77.8098 30.7006L76.1032 30.1624C75.6919 30.0399 75.3856 29.8561 75.1843 29.611C74.983 29.366 74.8823 29.0859 74.8823 28.7709C74.8823 28.3595 75.0311 28.0313 75.3287 27.7863C75.635 27.5412 76.0288 27.4187 76.5102 27.4187C77.0528 27.4187 77.5254 27.5587 77.9279 27.8388C78.3305 28.1189 78.6281 28.5171 78.8206 29.0334L80.1071 28.4689C79.9496 27.9963 79.6958 27.5806 79.3457 27.2218C79.0044 26.863 78.5931 26.5829 78.1117 26.3816C77.6304 26.1716 77.0965 26.0666 76.5102 26.0666C75.8975 26.0666 75.3506 26.1847 74.8692 26.421C74.3966 26.6573 74.0247 26.9855 73.7534 27.4056C73.4821 27.8169 73.3464 28.2983 73.3464 28.8496C73.3464 29.4797 73.539 30.0311 73.924 30.5037C74.3091 30.9675 74.8692 31.3132 75.6044 31.5408L77.4422 32.1184C77.8273 32.2409 78.1205 32.4072 78.3218 32.6172C78.5318 32.8273 78.6368 33.1117 78.6368 33.4705C78.6368 33.8731 78.4749 34.1969 78.1511 34.442C77.836 34.6783 77.416 34.7964 76.8909 34.7964C76.2957 34.7964 75.7663 34.6345 75.3024 34.3107C74.8473 33.9869 74.506 33.523 74.2785 32.9192L72.9657 33.4705C73.1407 33.9956 73.4121 34.4595 73.7796 34.8621C74.1472 35.2646 74.5892 35.5841 75.1055 35.8204C75.6306 36.0479 76.2038 36.1617 76.8252 36.1617ZM84.5634 36.0829C84.6859 36.0829 84.8216 36.0742 84.9704 36.0567C85.1191 36.0392 85.2504 36.0217 85.3642 36.0042V34.7308C85.1979 34.757 85.036 34.7702 84.8785 34.7702C84.4496 34.7702 84.1433 34.6695 83.9595 34.4682C83.7845 34.2582 83.697 33.9738 83.697 33.6149V30.2411H85.3117V28.9021H83.697V27.2743H82.2136V27.8257C82.2136 28.1582 82.1217 28.4208 81.9379 28.6133C81.7541 28.8059 81.4959 28.9021 81.1634 28.9021H80.9665V30.2411H82.2136V33.6806C82.2136 34.442 82.4192 35.0327 82.8306 35.4528C83.2419 35.8729 83.8195 36.0829 84.5634 36.0829ZM88.6118 36.1617C89.1019 36.1617 89.5439 36.0785 89.9377 35.9123C90.3315 35.7372 90.6597 35.4922 90.9223 35.1771V36.0042H92.3401V31.2257C92.3401 30.7356 92.2175 30.3068 91.9725 29.9392C91.7274 29.5629 91.3905 29.2697 90.9617 29.0597C90.5328 28.8496 90.0384 28.7446 89.4783 28.7446C89.0319 28.7446 88.6075 28.8234 88.2049 28.9809C87.811 29.1297 87.4654 29.3353 87.1678 29.5979C86.879 29.8604 86.6646 30.1668 86.5245 30.5168L87.7585 31.1338C87.8986 30.8013 88.113 30.5343 88.4018 30.333C88.6993 30.1317 89.045 30.0311 89.4389 30.0311C89.8677 30.0311 90.209 30.1449 90.4628 30.3724C90.7254 30.5912 90.8566 30.8756 90.8566 31.2257V31.5014L88.5987 31.869C87.776 32.009 87.1678 32.2803 86.774 32.6829C86.3889 33.0767 86.1964 33.558 86.1964 34.1269C86.1964 34.7395 86.4195 35.234 86.8659 35.6103C87.3122 35.9779 87.8942 36.1617 88.6118 36.1617ZM87.7454 34.0744C87.7454 33.7943 87.8373 33.5624 88.0211 33.3786C88.2049 33.1948 88.4937 33.0723 88.8875 33.0111L90.8566 32.6697V33.0504C90.8566 33.4093 90.7691 33.7375 90.5941 34.035C90.4278 34.3326 90.1959 34.5689 89.8983 34.7439C89.6008 34.9102 89.2507 34.9933 88.8481 34.9933C88.5243 34.9933 88.2574 34.9102 88.0473 34.7439C87.8461 34.5689 87.7454 34.3457 87.7454 34.0744ZM96.7556 36.0829C96.8782 36.0829 97.0138 36.0742 97.1626 36.0567C97.3114 36.0392 97.4427 36.0217 97.5564 36.0042V34.7308C97.3901 34.757 97.2282 34.7702 97.0707 34.7702C96.6419 34.7702 96.3356 34.6695 96.1518 34.4682C95.9767 34.2582 95.8892 33.9738 95.8892 33.6149V30.2411H97.5039V28.9021H95.8892V27.2743H94.4058V27.8257C94.4058 28.1582 94.3139 28.4208 94.1301 28.6133C93.9463 28.8059 93.6882 28.9021 93.3556 28.9021H93.1587V30.2411H94.4058V33.6806C94.4058 34.442 94.6115 35.0327 95.0228 35.4528C95.4341 35.8729 96.0118 36.0829 96.7556 36.0829ZM98.7415 27.9307H100.225V26.2241H98.7415V27.9307ZM98.7415 36.0042H100.225V28.9021H98.7415V36.0042ZM104.322 36.1617C104.847 36.1617 105.307 36.0742 105.701 35.8991C106.103 35.7153 106.414 35.4659 106.633 35.1509C106.852 34.827 106.961 34.4551 106.961 34.035C106.961 33.5449 106.803 33.1248 106.488 32.7748C106.173 32.4159 105.723 32.1534 105.136 31.9871L103.981 31.6458C103.762 31.5758 103.556 31.4795 103.364 31.357C103.171 31.2345 103.075 31.0507 103.075 30.8056C103.075 30.5518 103.171 30.3505 103.364 30.2018C103.556 30.053 103.815 29.9786 104.138 29.9786C104.515 29.9786 104.852 30.0792 105.149 30.2805C105.456 30.4818 105.679 30.7531 105.819 31.0944L106.961 30.5562C106.751 29.9873 106.392 29.5454 105.884 29.2303C105.377 28.9065 104.799 28.7446 104.152 28.7446C103.67 28.7446 103.237 28.8365 102.852 29.0203C102.467 29.1953 102.165 29.4404 101.946 29.7554C101.727 30.0705 101.618 30.4424 101.618 30.8713C101.618 31.3526 101.767 31.7683 102.064 32.1184C102.371 32.4685 102.83 32.731 103.443 32.906L104.559 33.2211C104.786 33.2824 105.001 33.3786 105.202 33.5099C105.403 33.6324 105.504 33.8206 105.504 34.0744C105.504 34.3457 105.394 34.5601 105.176 34.7176C104.957 34.8752 104.672 34.9539 104.322 34.9539C103.911 34.9539 103.535 34.8358 103.193 34.5995C102.861 34.3632 102.598 34.0438 102.406 33.6412L101.264 34.1794C101.482 34.7833 101.863 35.2646 102.406 35.6235C102.957 35.9823 103.596 36.1617 104.322 36.1617ZM111.224 36.0829C111.346 36.0829 111.482 36.0742 111.631 36.0567C111.779 36.0392 111.911 36.0217 112.024 36.0042V34.7308C111.858 34.757 111.696 34.7702 111.539 34.7702C111.11 34.7702 110.804 34.6695 110.62 34.4682C110.445 34.2582 110.357 33.9738 110.357 33.6149V30.2411H111.972V28.9021H110.357V27.2743H108.874V27.8257C108.874 28.1582 108.782 28.4208 108.598 28.6133C108.414 28.8059 108.156 28.9021 107.824 28.9021H107.627V30.2411H108.874V33.6806C108.874 34.442 109.079 35.0327 109.491 35.4528C109.902 35.8729 110.48 36.0829 111.224 36.0829ZM113.21 27.9307H114.693V26.2241H113.21V27.9307ZM113.21 36.0042H114.693V28.9021H113.21V36.0042ZM119.539 36.1617C120.029 36.1617 120.484 36.0742 120.904 35.8991C121.324 35.7241 121.687 35.4878 121.993 35.1902C122.308 34.8839 122.536 34.5426 122.676 34.1663L121.376 33.5493C121.219 33.9256 120.978 34.2276 120.654 34.4551C120.339 34.6739 119.967 34.7833 119.539 34.7833C119.136 34.7833 118.773 34.6826 118.449 34.4814C118.134 34.2801 117.884 34.0044 117.701 33.6543C117.517 33.2955 117.425 32.8929 117.425 32.4466C117.425 31.9915 117.517 31.5933 117.701 31.252C117.884 30.9019 118.134 30.6262 118.449 30.4249C118.773 30.2236 119.136 30.123 119.539 30.123C119.967 30.123 120.344 30.2368 120.668 30.4643C120.991 30.6831 121.228 30.9763 121.376 31.3439L122.676 30.74C122.527 30.3462 122.295 30.0005 121.98 29.7029C121.674 29.3966 121.311 29.1603 120.891 28.994C120.471 28.8277 120.02 28.7446 119.539 28.7446C118.83 28.7446 118.2 28.9065 117.648 29.2303C117.097 29.5454 116.664 29.983 116.349 30.5431C116.033 31.0944 115.876 31.7246 115.876 32.4335C115.876 33.1423 116.033 33.7768 116.349 34.3369C116.664 34.8971 117.097 35.3434 117.648 35.676C118.2 35.9998 118.83 36.1617 119.539 36.1617ZM126.489 36.1617C127.014 36.1617 127.473 36.0742 127.867 35.8991C128.27 35.7153 128.581 35.4659 128.799 35.1509C129.018 34.827 129.128 34.4551 129.128 34.035C129.128 33.5449 128.97 33.1248 128.655 32.7748C128.34 32.4159 127.889 32.1534 127.303 31.9871L126.148 31.6458C125.929 31.5758 125.723 31.4795 125.531 31.357C125.338 31.2345 125.242 31.0507 125.242 30.8056C125.242 30.5518 125.338 30.3505 125.531 30.2018C125.723 30.053 125.981 29.9786 126.305 29.9786C126.681 29.9786 127.018 30.0792 127.316 30.2805C127.622 30.4818 127.845 30.7531 127.985 31.0944L129.128 30.5562C128.917 29.9873 128.559 29.5454 128.051 29.2303C127.543 28.9065 126.966 28.7446 126.318 28.7446C125.837 28.7446 125.404 28.8365 125.019 29.0203C124.634 29.1953 124.332 29.4404 124.113 29.7554C123.894 30.0705 123.785 30.4424 123.785 30.8713C123.785 31.3526 123.933 31.7683 124.231 32.1184C124.537 32.4685 124.997 32.731 125.609 32.906L126.725 33.2211C126.953 33.2824 127.167 33.3786 127.368 33.5099C127.57 33.6324 127.67 33.8206 127.67 34.0744C127.67 34.3457 127.561 34.5601 127.342 34.7176C127.123 34.8752 126.839 34.9539 126.489 34.9539C126.078 34.9539 125.701 34.8358 125.36 34.5995C125.027 34.3632 124.765 34.0438 124.572 33.6412L123.43 34.1794C123.649 34.7833 124.03 35.2646 124.572 35.6235C125.124 35.9823 125.762 36.1617 126.489 36.1617Z" fill="#90A3BF"/>
<g clip-path="url(#clip1_138_6087)">
<path d="M415.151 225.326L416.342 225.855C417.419 226.334 418.113 227.402 418.113 228.58V356.354C418.113 358.001 416.778 359.336 415.131 359.336H21.5225C19.8757 359.336 18.5406 358.001 18.5406 356.354V213.086C18.5406 212.686 18.6265 212.289 18.7923 211.924C19.908 209.47 23.5052 209.845 24.0901 212.477L25.0028 216.585C25.6021 219.282 29.2295 219.784 30.5392 217.352L31.1147 216.283C31.6348 215.317 32.6432 214.715 33.7402 214.715H40.034C41.4178 214.715 42.6197 213.763 42.9366 212.416L45.0756 203.325C45.268 202.508 45.7961 201.809 46.5301 201.401L49.981 199.484C51.2095 198.802 52.7478 199.07 53.6732 200.127L53.878 200.361C55.3953 202.095 58.2223 201.527 58.9509 199.341L61.6801 191.153C61.7452 190.958 61.7899 190.756 61.8134 190.552L63.8953 172.509C63.9724 171.841 64.2733 171.218 64.749 170.743L66.9996 168.492C68.6385 166.853 71.4388 167.629 72.001 169.877L72.8118 173.121C73.2202 174.754 75.2115 175.378 76.4786 174.269C77.8368 173.081 79.9713 173.893 80.1952 175.684L83.653 203.347C84.0626 206.624 88.7039 206.904 89.5048 203.701L90.8513 198.314C91.2122 195.337 95.5604 195.427 95.7982 198.416L96.5077 207.335C96.795 210.947 102.062 211.017 102.445 207.414L102.642 205.569C102.729 204.746 103.155 203.996 103.818 203.499L105.761 202.042L107.517 200.578C108.728 199.569 110.578 200.243 110.855 201.796C111.284 204.197 114.796 203.983 114.93 201.547L117.194 160.349C117.314 158.161 120.312 157.647 121.155 159.669C121.324 160.076 121.619 160.417 121.997 160.644L124.797 162.324C126.682 163.455 129.101 162.226 129.301 160.037L132.72 122.425C132.956 119.825 136.184 118.762 137.918 120.714L138.674 121.564C139.086 122.027 139.343 122.607 139.409 123.224L142.19 148.94C142.254 149.538 142.499 150.103 142.89 150.56L145.404 153.493C146.219 154.444 147.542 154.784 148.715 154.344L149.373 154.098C151.117 153.444 153.027 154.532 153.355 156.366L154.189 161.034C154.744 164.146 159.123 164.368 159.991 161.329L160.543 159.399C160.785 158.549 161.392 157.852 162.199 157.493L166.744 155.473C167.318 155.218 167.778 154.761 168.038 154.189C169.073 151.914 172.418 152.308 172.895 154.762L176.111 171.301C176.384 172.702 177.611 173.714 179.038 173.714H184.689C186.057 173.714 187.25 174.645 187.582 175.972L188.972 181.531C189.137 182.194 189.733 182.659 190.416 182.659C191.058 182.659 191.627 183.07 191.829 183.678L192.699 186.286C193.571 188.902 197.22 189.035 198.28 186.49L198.783 185.284C198.89 185.026 199.033 184.785 199.207 184.568L201.461 181.75C201.767 181.368 201.974 180.917 202.064 180.437L204.086 169.651C204.137 169.379 204.226 169.115 204.35 168.867L206.154 165.259C206.316 164.934 206.418 164.583 206.454 164.222L208.142 147.34C208.366 145.102 210.892 143.908 212.763 145.156L214.248 146.146C214.947 146.611 215.417 147.35 215.543 148.18L218.824 169.837C218.978 170.857 219.649 171.724 220.597 172.131L221.482 172.51C223.022 173.17 224.803 172.432 225.426 170.877L226.977 166.998C227.784 164.981 230.452 164.558 231.843 166.227C232.262 166.73 232.841 167.074 233.484 167.203L241.092 168.725C242.566 169.02 244.03 168.17 244.505 166.744L247.207 158.639C247.334 158.256 247.539 157.903 247.807 157.601L249.077 156.173C250.766 154.272 253.906 155.222 254.259 157.74L257.958 184.162C258.254 186.278 260.613 187.405 262.445 186.305L269.206 182.249C271.142 181.087 273.616 182.415 273.719 184.671L276.398 243.616C276.445 244.65 277.024 245.585 277.929 246.087L282.67 248.721C283.009 248.909 283.308 249.162 283.55 249.465L288.914 256.171C289.069 256.363 289.198 256.575 289.301 256.799L292.7 264.279C292.816 264.533 292.895 264.801 292.936 265.076L295.479 282.244C295.696 283.706 296.951 284.789 298.429 284.789H300.708C302.199 284.789 303.461 285.89 303.662 287.368L304.887 296.346C305.188 298.558 307.723 299.666 309.551 298.386L312.052 296.636C312.663 296.208 313.092 295.567 313.253 294.84L314.893 287.461C315.384 285.25 318.063 284.372 319.767 285.863L321.286 287.192C321.718 287.57 322.031 288.064 322.189 288.617L324.242 295.8C324.808 297.783 327.65 297.687 328.082 295.671C328.56 293.442 331.805 293.652 331.992 295.924L334.862 330.834C335.066 333.318 338.046 334.471 339.868 332.77L345.788 327.245C346.28 326.785 346.602 326.173 346.702 325.507L348.589 312.932C348.713 312.1 349.184 311.36 349.883 310.893L349.96 310.842C350.638 310.39 351.101 309.681 351.242 308.879L352.969 299.096C353.148 298.08 353.84 297.229 354.798 296.846L357.984 295.571C359.414 294.999 361.015 295.845 361.349 297.348C361.924 299.934 365.598 299.965 366.216 297.389L368.004 289.939C368.111 289.494 368.319 289.079 368.613 288.726L371 285.862C371.566 285.182 372.406 284.789 373.291 284.789H373.641C374.432 284.789 375.19 284.475 375.749 283.916L376.926 282.739C377.908 281.757 379.437 281.583 380.615 282.319L383.578 284.171C384.214 284.568 384.677 285.191 384.874 285.915L385.042 286.531C385.903 289.688 390.483 289.355 390.879 286.108L392.563 272.302C392.69 271.262 393.354 270.364 394.312 269.939L398.066 268.27C398.951 267.877 399.589 267.079 399.779 266.13L400.605 262C400.816 260.946 401.741 260.188 402.814 260.188C403.903 260.188 404.836 259.41 405.031 258.338L405.993 253.047C406.105 252.434 406.639 251.988 407.262 251.988C407.921 251.988 408.475 251.49 408.544 250.834L410.975 227.738C411.187 225.725 413.301 224.503 415.151 225.326Z" fill="url(#paint0_linear_138_6087)"/>
<path d="M418.113 226.642L415.151 225.326C413.301 224.503 411.187 225.725 410.975 227.738L408.544 250.834C408.475 251.49 407.921 251.988 407.262 251.988V251.988C406.639 251.988 406.105 252.434 405.993 253.047L405.031 258.338C404.836 259.41 403.903 260.188 402.814 260.188V260.188C401.741 260.188 400.816 260.946 400.605 262L399.779 266.13C399.589 267.079 398.951 267.877 398.066 268.27L394.312 269.939C393.354 270.364 392.69 271.262 392.563 272.302L390.879 286.108C390.483 289.355 385.903 289.688 385.042 286.531L384.874 285.915C384.677 285.191 384.214 284.568 383.578 284.171L380.615 282.319C379.437 281.583 377.908 281.757 376.926 282.739L375.749 283.916C375.19 284.475 374.432 284.789 373.641 284.789H373.291C372.406 284.789 371.566 285.182 371 285.862L368.613 288.726C368.319 289.079 368.111 289.494 368.004 289.939L366.216 297.389C365.598 299.965 361.924 299.934 361.349 297.348V297.348C361.015 295.845 359.414 294.999 357.984 295.571L354.798 296.846C353.84 297.229 353.148 298.08 352.969 299.096L351.242 308.879C351.101 309.681 350.638 310.39 349.96 310.842L349.883 310.893C349.184 311.36 348.713 312.1 348.589 312.932L346.702 325.507C346.602 326.173 346.28 326.785 345.788 327.245L339.868 332.77C338.046 334.471 335.066 333.318 334.862 330.834L331.992 295.924C331.805 293.652 328.56 293.442 328.082 295.671V295.671C327.65 297.687 324.808 297.783 324.242 295.8L322.189 288.617C322.031 288.064 321.718 287.57 321.286 287.192L319.767 285.863C318.063 284.372 315.384 285.25 314.893 287.461L313.253 294.84C313.092 295.567 312.663 296.208 312.052 296.636L309.551 298.386C307.723 299.666 305.188 298.558 304.887 296.346L303.662 287.368C303.461 285.89 302.199 284.789 300.708 284.789H298.429C296.951 284.789 295.696 283.706 295.479 282.244L292.936 265.076C292.895 264.801 292.816 264.533 292.7 264.279L289.301 256.8C289.198 256.575 289.069 256.363 288.914 256.171L283.55 249.465C283.308 249.162 283.009 248.909 282.67 248.721L277.929 246.087C277.024 245.585 276.445 244.65 276.398 243.616L273.719 184.671C273.616 182.415 271.142 181.087 269.206 182.249L262.445 186.305C260.613 187.405 258.254 186.278 257.958 184.162L254.259 157.74C253.906 155.222 250.766 154.272 249.077 156.173L247.807 157.601C247.539 157.903 247.335 158.256 247.207 158.639L244.505 166.744C244.03 168.17 242.566 169.02 241.092 168.725L233.484 167.203C232.841 167.074 232.262 166.73 231.843 166.227V166.227C230.452 164.558 227.784 164.981 226.977 166.998L225.426 170.877C224.803 172.432 223.022 173.17 221.482 172.51L220.597 172.131C219.649 171.724 218.978 170.857 218.824 169.837L215.543 148.18C215.417 147.35 214.947 146.611 214.248 146.146L212.763 145.156C210.892 143.908 208.366 145.102 208.142 147.34L206.454 164.222C206.418 164.583 206.316 164.934 206.154 165.259L204.35 168.867C204.226 169.115 204.137 169.379 204.086 169.651L202.064 180.437C201.974 180.917 201.767 181.368 201.461 181.75L199.207 184.568C199.033 184.785 198.89 185.026 198.783 185.284L198.28 186.49C197.22 189.035 193.571 188.902 192.699 186.286L191.829 183.678C191.627 183.07 191.058 182.659 190.416 182.659V182.659C189.733 182.659 189.137 182.194 188.972 181.531L187.582 175.972C187.25 174.645 186.057 173.714 184.689 173.714H179.038C177.611 173.714 176.384 172.702 176.111 171.301L172.895 154.762C172.418 152.308 169.073 151.914 168.038 154.189V154.189C167.778 154.761 167.318 155.218 166.744 155.473L162.199 157.493C161.392 157.852 160.785 158.549 160.543 159.399L159.991 161.329C159.123 164.368 154.744 164.146 154.189 161.034L153.355 156.366C153.027 154.532 151.117 153.444 149.373 154.098L148.715 154.344C147.542 154.784 146.219 154.444 145.404 153.493L142.89 150.56C142.499 150.103 142.254 149.538 142.19 148.94L139.409 123.224C139.343 122.607 139.086 122.027 138.674 121.564L137.918 120.714C136.183 118.762 132.956 119.825 132.72 122.425L129.301 160.037C129.101 162.226 126.682 163.455 124.797 162.324L121.997 160.644C121.619 160.417 121.324 160.076 121.155 159.669V159.669C120.312 157.647 117.314 158.161 117.194 160.349L114.93 201.547C114.796 203.983 111.284 204.197 110.855 201.796V201.796C110.578 200.243 108.728 199.569 107.517 200.578L105.761 202.042L103.818 203.499C103.155 203.996 102.729 204.746 102.642 205.569L102.445 207.414C102.062 211.017 96.795 210.947 96.5077 207.335L95.7982 198.416C95.5604 195.427 91.2123 195.337 90.8514 198.314V198.314L89.5048 203.701C88.7039 206.904 84.0626 206.624 83.6531 203.347L80.1952 175.684C79.9713 173.893 77.8368 173.081 76.4786 174.269V174.269C75.2115 175.378 73.2202 174.754 72.8118 173.121L72.001 169.877C71.4388 167.629 68.6385 166.853 66.9996 168.492L64.749 170.743C64.2733 171.218 63.9724 171.841 63.8953 172.509L61.8134 190.552C61.7899 190.756 61.7452 190.958 61.6801 191.153L58.9509 199.341C58.2223 201.527 55.3953 202.095 53.878 200.361L53.6732 200.127C52.7478 199.07 51.2095 198.802 49.981 199.484L46.5301 201.401C45.796 201.809 45.268 202.508 45.0756 203.325L42.9366 212.416C42.6197 213.763 41.4178 214.715 40.034 214.715H33.7402C32.6432 214.715 31.6348 215.317 31.1147 216.283L30.5392 217.352C29.2295 219.784 25.6021 219.282 25.0028 216.585L24.2028 212.985C23.5817 210.19 19.7253 209.872 18.5406 212.478V212.478" stroke="#FF4423" stroke-width="1.96914"/>
</g>
<defs>
<linearGradient id="paint0_linear_138_6087" x1="244.173" y1="-786.342" x2="218.327" y2="376.482" gradientUnits="userSpaceOnUse">
<stop stop-color="#FF4423" stop-opacity="0.6"/>
<stop offset="1" stop-color="#FF4423" stop-opacity="0"/>
</linearGradient>
<clipPath id="clip0_138_6087">
<rect width="276.992" height="133.901" fill="white" transform="translate(21.0039 125.368)"/>
</clipPath>
<clipPath id="clip1_138_6087">
<rect width="276.992" height="187.724" fill="white" transform="matrix(-1 0 0 1 297.996 76.1399)"/>
</clipPath>
</defs>
</svg>
