<svg width="319" height="285" viewBox="0 0 319 285" fill="none" xmlns="http://www.w3.org/2000/svg">
<rect width="319" height="285" rx="7.88018" fill="#FAFAFA"/>
<g opacity="0.4" clip-path="url(#clip0_138_6116)">
<path d="M300.76 125.426H21.0139" stroke="#B2B6B8" stroke-width="0.656682" stroke-dasharray="6.57 6.57"/>
<path d="M300.76 158.917H21.0139" stroke="#B2B6B8" stroke-width="0.656682" stroke-dasharray="6.57 6.57"/>
<path d="M300.76 192.408H21.0139" stroke="#B2B6B8" stroke-width="0.656682" stroke-dasharray="6.57 6.57"/>
<path d="M300.76 225.899H21.0139" stroke="#B2B6B8" stroke-width="0.656682" stroke-dasharray="6.57 6.57"/>
<path d="M300.76 259.389H21.0139" stroke="#B2B6B8" stroke-width="0.656682" stroke-dasharray="6.57 6.57"/>
</g>
<path d="M27.8697 84.5254H29.8791V82.3978C30.9193 82.3032 31.8334 82.0274 32.6214 81.5704C33.4094 81.0976 34.0241 80.4987 34.4654 79.7737C34.9067 79.0487 35.1273 78.2213 35.1273 77.2914C35.1273 74.9431 33.7247 73.3198 30.9193 72.4215L29.8791 72.0905V67.2915C31.0927 67.7012 31.9516 68.5523 32.4559 69.8446L35.1037 68.6626C34.7097 67.5436 34.0477 66.6059 33.1179 65.8494C32.2038 65.0929 31.1242 64.6043 29.8791 64.3837V62.1851H27.8697V64.2891C26.8295 64.3679 25.9075 64.6358 25.1037 65.0929C24.3157 65.5342 23.7011 66.1252 23.2598 66.8659C22.8185 67.6067 22.5978 68.4499 22.5978 69.3955C22.5978 70.546 22.9446 71.5468 23.638 72.3978C24.3315 73.2331 25.3638 73.8714 26.7349 74.3127L27.8697 74.6673V79.4427C27.1605 79.2536 26.5222 78.899 25.9548 78.3789C25.3874 77.843 24.9382 77.1811 24.6073 76.3931L21.9359 77.5515C22.3614 78.8438 23.1022 79.9234 24.1581 80.7902C25.2141 81.6413 26.4512 82.1693 27.8697 82.3741V84.5254ZM27.6806 71.4049C27.0501 71.2 26.5694 70.9164 26.2385 70.5539C25.9233 70.1756 25.7657 69.7422 25.7657 69.2536C25.7657 68.6863 25.9548 68.2135 26.333 67.8352C26.7113 67.457 27.2235 67.2205 27.8697 67.126V71.4758L27.6806 71.4049ZM30.1155 75.4002C30.7302 75.6051 31.1872 75.873 31.4867 76.204C31.8019 76.5349 31.9595 76.9605 31.9595 77.4805C31.9595 78.0322 31.7704 78.4971 31.3921 78.8753C31.0139 79.2378 30.5095 79.4742 29.8791 79.5846V75.3293L30.1155 75.4002ZM43.0814 82.4451C44.358 82.4451 45.4613 82.2087 46.3911 81.7358C47.3367 81.2473 48.0617 80.6011 48.5661 79.7973C49.0862 78.9778 49.3462 78.0794 49.3462 77.1023C49.3462 76.1252 49.1177 75.282 48.6606 74.5728C48.2193 73.8478 47.5732 73.2568 46.7221 72.7997C47.321 72.4057 47.7859 71.8856 48.1169 71.2394C48.4479 70.5775 48.6133 69.8525 48.6133 69.0645C48.6133 68.1346 48.3769 67.3072 47.9041 66.5823C47.4313 65.8573 46.7773 65.2899 45.942 64.8801C45.1067 64.4704 44.1532 64.2655 43.0814 64.2655C41.994 64.2655 41.0326 64.4782 40.1973 64.9038C39.362 65.3135 38.7079 65.8809 38.2351 66.6059C37.7623 67.3151 37.5259 68.1346 37.5259 69.0645C37.5259 69.8368 37.6914 70.5617 38.0224 71.2394C38.3533 71.9171 38.8261 72.4372 39.4408 72.7997C37.6914 73.7138 36.8167 75.1401 36.8167 77.0787C36.8167 78.0558 37.0689 78.9541 37.5732 79.7737C38.0933 80.5932 38.8183 81.2473 39.7481 81.7358C40.6938 82.2087 41.8049 82.4451 43.0814 82.4451ZM43.0814 71.5468C42.388 71.5468 41.8206 71.334 41.3793 70.9085C40.9538 70.4672 40.741 69.9156 40.741 69.2536C40.741 68.6075 40.9538 68.0716 41.3793 67.6461C41.8206 67.2048 42.388 66.9841 43.0814 66.9841C43.7749 66.9841 44.3344 67.2048 44.7599 67.6461C45.1855 68.0716 45.3982 68.6075 45.3982 69.2536C45.3982 69.9156 45.1855 70.4672 44.7599 70.9085C44.3344 71.334 43.7749 71.5468 43.0814 71.5468ZM43.0814 79.7264C42.1673 79.7264 41.4345 79.4742 40.8829 78.9699C40.3313 78.4656 40.0555 77.8036 40.0555 76.9841C40.0555 76.1646 40.3313 75.5105 40.8829 75.0219C41.4345 74.5176 42.1673 74.2654 43.0814 74.2654C43.9956 74.2654 44.7284 74.5176 45.28 75.0219C45.8474 75.5105 46.1311 76.1646 46.1311 76.9841C46.1311 77.8036 45.8474 78.4656 45.28 78.9699C44.7284 79.4742 43.9956 79.7264 43.0814 79.7264ZM56.86 82.4451C58.0736 82.4451 59.1531 82.185 60.0988 81.6649C61.0444 81.1291 61.7851 80.412 62.321 79.5136C62.8726 78.5995 63.1484 77.5751 63.1484 76.4404C63.1484 75.3214 62.912 74.3285 62.4392 73.4617C61.9664 72.5791 61.2966 71.8856 60.4297 71.3813C59.5787 70.877 58.57 70.6248 57.4037 70.6248C56.2848 70.6248 55.3628 70.8533 54.6378 71.3104L55.1815 67.2678H62.4865V64.5492H52.8884L51.4936 74.3364L54.1177 74.9274C54.3384 74.423 54.693 74.0369 55.1815 73.769C55.6859 73.5011 56.2454 73.3671 56.86 73.3671C57.7584 73.3671 58.4912 73.6508 59.0586 74.2182C59.626 74.7855 59.9096 75.5263 59.9096 76.4404C59.9096 77.3545 59.626 78.1031 59.0586 78.6862C58.4912 79.2536 57.7584 79.5373 56.86 79.5373C56.135 79.5373 55.4731 79.3403 54.8742 78.9463C54.2753 78.5523 53.8419 77.9612 53.574 77.1732L50.7844 78.1661C51.005 79.0487 51.4148 79.8131 52.0137 80.4593C52.6284 81.1054 53.3533 81.6019 54.1886 81.9486C55.0397 82.2796 55.9302 82.4451 56.86 82.4451ZM66.109 85.8493C68.5046 85.345 69.7024 83.6901 69.7024 80.8848V78.8517H66.5818V82.1614H67.9766C67.8348 83.3276 67.2122 84.0447 66.109 84.3127V85.8493ZM72.5019 82.1614H84.3222V79.4427H76.6863L80.8234 75.0929C81.9424 73.9266 82.7619 72.8943 83.282 71.9959C83.8179 71.0976 84.0858 70.1677 84.0858 69.2064C84.0858 68.2292 83.8415 67.3703 83.3529 66.6295C82.8801 65.8888 82.2103 65.3135 81.3435 64.9038C80.4924 64.4782 79.4995 64.2655 78.3648 64.2655C77.4192 64.2655 76.5208 64.4546 75.6698 64.8329C74.8345 65.1953 74.1253 65.7233 73.5421 66.4168C72.959 67.0945 72.5729 67.8982 72.3837 68.8281L75.197 69.7028C75.4491 68.8675 75.851 68.2371 76.4026 67.8116C76.9542 67.3703 77.6083 67.1496 78.3648 67.1496C79.0898 67.1496 79.6808 67.3624 80.1378 67.7879C80.6106 68.2135 80.847 68.7966 80.847 69.5373C80.847 69.9786 80.7446 70.412 80.5397 70.8376C80.3348 71.2631 79.9723 71.7753 79.4523 72.3742C78.9322 72.9731 78.2072 73.7611 77.2773 74.7382L72.5019 79.7264V82.1614ZM88.9009 82.1614H92.116V64.5492H85.4967V67.2915H88.9009V82.1614ZM97.7264 82.1614H100.942V64.5492H94.3222V67.2915H97.7264V82.1614ZM105.37 82.1614H108.49V78.8517H105.37V82.1614ZM119.056 82.4451C120.475 82.4451 121.712 82.0668 122.768 81.3103C123.824 80.5381 124.643 79.4742 125.226 78.1188C125.825 76.7477 126.125 75.1559 126.125 73.3435C126.125 71.531 125.825 69.9471 125.226 68.5917C124.643 67.2205 123.816 66.1567 122.744 65.4002C121.688 64.6437 120.451 64.2655 119.032 64.2655C117.646 64.2655 116.424 64.6437 115.368 65.4002C114.312 66.1567 113.485 67.2127 112.886 68.5681C112.303 69.9235 112.011 71.5152 112.011 73.3435C112.011 75.1559 112.303 76.7477 112.886 78.1188C113.485 79.49 114.312 80.5538 115.368 81.3103C116.44 82.0668 117.669 82.4451 119.056 82.4451ZM119.056 79.5136C117.858 79.5136 116.921 78.962 116.243 77.8588C115.565 76.7556 115.226 75.2505 115.226 73.3435C115.226 71.4207 115.557 69.9156 116.219 68.8281C116.897 67.7406 117.835 67.1969 119.032 67.1969C120.246 67.1969 121.192 67.7485 121.869 68.8517C122.563 69.9392 122.909 71.4364 122.909 73.3435C122.909 75.2505 122.571 76.7556 121.893 77.8588C121.215 78.962 120.27 79.5136 119.056 79.5136ZM135.085 82.4451C136.503 82.4451 137.74 82.0668 138.796 81.3103C139.852 80.5381 140.672 79.4742 141.255 78.1188C141.854 76.7477 142.153 75.1559 142.153 73.3435C142.153 71.531 141.854 69.9471 141.255 68.5917C140.672 67.2205 139.844 66.1567 138.772 65.4002C137.717 64.6437 136.479 64.2655 135.061 64.2655C133.674 64.2655 132.453 64.6437 131.397 65.4002C130.341 66.1567 129.513 67.2127 128.914 68.5681C128.331 69.9235 128.04 71.5152 128.04 73.3435C128.04 75.1559 128.331 76.7477 128.914 78.1188C129.513 79.49 130.341 80.5538 131.397 81.3103C132.468 82.0668 133.698 82.4451 135.085 82.4451ZM135.085 79.5136C133.887 79.5136 132.949 78.962 132.271 77.8588C131.594 76.7556 131.255 75.2505 131.255 73.3435C131.255 71.4207 131.586 69.9156 132.248 68.8281C132.925 67.7406 133.863 67.1969 135.061 67.1969C136.274 67.1969 137.22 67.7485 137.898 68.8517C138.591 69.9392 138.938 71.4364 138.938 73.3435C138.938 75.2505 138.599 76.7556 137.921 77.8588C137.244 78.962 136.298 79.5136 135.085 79.5136Z" fill="#1A202C"/>
<path d="M168.647 72.9852L174.263 72.4939L174.754 78.1096" stroke="#659711" stroke-width="1.64171" stroke-miterlimit="10" stroke-linecap="round" stroke-linejoin="round"/>
<path d="M167.087 81.0457L174.191 72.5794" stroke="#659711" stroke-width="1.64171" stroke-miterlimit="10" stroke-linecap="round" stroke-linejoin="round"/>
<path d="M188.371 81.7626C189.027 81.7626 189.61 81.6225 190.117 81.3423C190.634 81.0534 191.037 80.6637 191.326 80.1734C191.615 79.6743 191.759 79.1096 191.759 78.4792C191.759 77.8838 191.623 77.3541 191.352 76.89C191.089 76.4259 190.726 76.0582 190.262 75.7868C189.798 75.5153 189.268 75.3796 188.673 75.3796C188.533 75.3796 188.401 75.3884 188.279 75.4059L191.076 71.8204H188.949L186.217 75.3665C185.884 75.8043 185.626 76.2027 185.442 76.5617C185.258 76.9206 185.131 77.2577 185.061 77.573C185 77.8882 184.969 78.2034 184.969 78.5186C184.969 79.1402 185.114 79.6962 185.402 80.1865C185.691 80.6769 186.09 81.0621 186.598 81.3423C187.114 81.6225 187.705 81.7626 188.371 81.7626ZM188.371 80.1471C187.915 80.1471 187.53 79.9939 187.215 79.6875C186.908 79.381 186.755 78.987 186.755 78.5054C186.755 78.0151 186.908 77.6211 187.215 77.3234C187.53 77.017 187.915 76.8637 188.371 76.8637C188.826 76.8637 189.207 77.017 189.513 77.3234C189.82 77.6211 189.973 78.0151 189.973 78.5054C189.973 78.987 189.815 79.381 189.5 79.6875C189.194 79.9939 188.817 80.1471 188.371 80.1471ZM195.812 81.7626C196.486 81.7626 197.086 81.6181 197.611 81.3292C198.136 81.0315 198.548 80.6331 198.846 80.134C199.152 79.6262 199.305 79.0571 199.305 78.4266C199.305 77.805 199.174 77.2534 198.911 76.7718C198.649 76.2815 198.276 75.8962 197.795 75.616C197.322 75.3359 196.762 75.1958 196.114 75.1958C195.492 75.1958 194.98 75.3227 194.577 75.5766L194.879 73.3308H198.937V71.8204H193.605L192.83 77.2577L194.288 77.5861C194.411 77.3059 194.608 77.0914 194.879 76.9425C195.159 76.7937 195.47 76.7193 195.812 76.7193C196.311 76.7193 196.718 76.8769 197.033 77.1921C197.348 77.5073 197.506 77.9188 197.506 78.4266C197.506 78.9345 197.348 79.3504 197.033 79.6743C196.718 79.9895 196.311 80.1471 195.812 80.1471C195.409 80.1471 195.041 80.0377 194.708 79.8188C194.376 79.5999 194.135 79.2716 193.986 78.8338L192.436 79.3854C192.559 79.8757 192.787 80.3004 193.119 80.6594C193.461 81.0183 193.864 81.2942 194.328 81.4868C194.8 81.6706 195.295 81.7626 195.812 81.7626ZM200.95 83.6538C202.281 83.3736 202.946 82.4543 202.946 80.8958V79.7663H201.213V81.605H201.988C201.909 82.2529 201.563 82.6513 200.95 82.8001V83.6538ZM205.708 81.605H207.494V71.8204H203.817V73.3439H205.708V81.605ZM213.825 76.7849C214.307 76.7849 214.74 76.6711 215.125 76.4435C215.511 76.2071 215.817 75.8962 216.045 75.511C216.272 75.1257 216.386 74.6967 216.386 74.2239C216.386 73.7511 216.272 73.322 216.045 72.9368C215.817 72.5428 215.511 72.2319 215.125 72.0043C214.74 71.7766 214.307 71.6628 213.825 71.6628C213.344 71.6628 212.906 71.7766 212.512 72.0043C212.118 72.2319 211.807 72.5428 211.579 72.9368C211.352 73.322 211.238 73.7511 211.238 74.2239C211.238 74.6967 211.352 75.1257 211.579 75.511C211.807 75.8962 212.118 76.2071 212.512 76.4435C212.906 76.6711 213.344 76.7849 213.825 76.7849ZM212.289 81.605H214.127L222.06 71.8204H220.221L212.289 81.605ZM213.825 75.4584C213.449 75.4584 213.151 75.3315 212.932 75.0776C212.722 74.8236 212.617 74.5391 212.617 74.2239C212.617 73.9087 212.722 73.6241 212.932 73.3702C213.151 73.1075 213.449 72.9762 213.825 72.9762C214.202 72.9762 214.491 73.1075 214.692 73.3702C214.902 73.6241 215.007 73.9087 215.007 74.2239C215.007 74.5391 214.902 74.8236 214.692 75.0776C214.491 75.3315 214.202 75.4584 213.825 75.4584ZM220.484 81.7626C220.966 81.7626 221.399 81.6488 221.784 81.4211C222.178 81.1847 222.489 80.8739 222.717 80.4886C222.944 80.1034 223.058 79.6743 223.058 79.2015C223.058 78.7287 222.944 78.2997 222.717 77.9144C222.489 77.5204 222.178 77.2096 221.784 76.9819C221.399 76.7543 220.966 76.6405 220.484 76.6405C220.002 76.6405 219.565 76.7543 219.171 76.9819C218.785 77.2096 218.479 77.5204 218.251 77.9144C218.024 78.2997 217.91 78.7287 217.91 79.2015C217.91 79.6743 218.024 80.1034 218.251 80.4886C218.479 80.8739 218.785 81.1847 219.171 81.4211C219.565 81.6488 220.002 81.7626 220.484 81.7626ZM220.484 80.4361C220.107 80.4361 219.814 80.3091 219.604 80.0552C219.394 79.8013 219.289 79.5167 219.289 79.2015C219.289 78.8863 219.394 78.6018 219.604 78.3478C219.814 78.0852 220.107 77.9538 220.484 77.9538C220.86 77.9538 221.154 78.0852 221.364 78.3478C221.574 78.6018 221.679 78.8863 221.679 79.2015C221.679 79.5167 221.574 79.8013 221.364 80.0552C221.154 80.3091 220.86 80.4361 220.484 80.4361Z" fill="#659711"/>
<path d="M285.657 29.5508C284.934 29.5508 284.343 30.1418 284.343 30.8641C284.343 31.5865 284.934 32.1775 285.657 32.1775C286.379 32.1775 286.97 31.5865 286.97 30.8641C286.97 30.1418 286.379 29.5508 285.657 29.5508Z" stroke="#90A3BF" stroke-width="0.985023"/>
<path d="M294.85 29.5508C294.128 29.5508 293.537 30.1418 293.537 30.8641C293.537 31.5865 294.128 32.1775 294.85 32.1775C295.572 32.1775 296.163 31.5865 296.163 30.8641C296.163 30.1418 295.572 29.5508 294.85 29.5508Z" stroke="#90A3BF" stroke-width="0.985023"/>
<path d="M290.253 29.5508C289.531 29.5508 288.94 30.1418 288.94 30.8641C288.94 31.5865 289.531 32.1775 290.253 32.1775C290.976 32.1775 291.567 31.5865 291.567 30.8641C291.567 30.1418 290.976 29.5508 290.253 29.5508Z" stroke="#90A3BF" stroke-width="0.985023"/>
<path d="M22.0252 36.0139H26.1623C27.2042 36.0139 28.0229 35.7556 28.6183 35.239C29.2224 34.7137 29.5245 33.987 29.5245 33.0588C29.5245 32.5948 29.4238 32.1614 29.2224 31.7586C29.0211 31.3559 28.6927 31.0144 28.2374 30.7342C28.5351 30.5065 28.754 30.2351 28.8941 29.9199C29.0429 29.5959 29.1174 29.2501 29.1174 28.8823C29.1174 28.0681 28.8503 27.4245 28.3162 26.9517C27.7909 26.4701 27.0685 26.2294 26.1492 26.2294H22.0252V36.0139ZM23.575 30.13V27.569H26.1886C26.6088 27.569 26.9459 27.6828 27.1999 27.9105C27.4538 28.1294 27.5807 28.4314 27.5807 28.8167C27.5807 29.2019 27.4538 29.5171 27.1999 29.7623C26.9459 30.0075 26.6088 30.13 26.1886 30.13H23.575ZM23.575 34.6349V31.4959H26.2805C26.7971 31.4959 27.2086 31.6404 27.5151 31.9294C27.8215 32.2095 27.9747 32.5904 27.9747 33.072C27.9747 33.5535 27.8215 33.9344 27.5151 34.2146C27.2086 34.4948 26.7971 34.6349 26.2805 34.6349H23.575ZM32.8392 36.1715C33.3295 36.1715 33.7717 36.0883 34.1657 35.922C34.5597 35.7469 34.8881 35.5017 35.1507 35.1865V36.0139H36.5692V31.2333C36.5692 30.7429 36.4466 30.3139 36.2014 29.9462C35.9563 29.5697 35.6192 29.2764 35.1901 29.0662C34.7611 28.8561 34.2664 28.751 33.706 28.751C33.2595 28.751 32.8348 28.8298 32.4321 28.9874C32.0381 29.1363 31.6922 29.342 31.3945 29.6047C31.1056 29.8674 30.8911 30.1738 30.751 30.5241L31.9855 31.1413C32.1256 30.8086 32.3401 30.5416 32.6291 30.3402C32.9268 30.1388 33.2726 30.0381 33.6666 30.0381C34.0957 30.0381 34.4371 30.1519 34.6911 30.3796C34.9537 30.5985 35.0851 30.883 35.0851 31.2333V31.5091L32.8261 31.8768C32.003 32.0169 31.3945 32.2883 31.0005 32.6911C30.6153 33.0851 30.4226 33.5667 30.4226 34.1358C30.4226 34.7487 30.6459 35.2434 31.0924 35.6199C31.539 35.9876 32.1212 36.1715 32.8392 36.1715ZM31.9724 34.0833C31.9724 33.8031 32.0643 33.5711 32.2482 33.3872C32.4321 33.2033 32.721 33.0807 33.115 33.0194L35.0851 32.678V33.0588C35.0851 33.4178 34.9975 33.7462 34.8224 34.0439C34.656 34.3416 34.424 34.578 34.1263 34.7531C33.8286 34.9194 33.4784 35.0026 33.0756 35.0026C32.7517 35.0026 32.4846 34.9194 32.2745 34.7531C32.0731 34.578 31.9724 34.3547 31.9724 34.0833ZM38.0418 36.0139H39.5259V26.0717H38.0418V36.0139ZM43.126 36.1715C43.6164 36.1715 44.0585 36.0883 44.4525 35.922C44.8465 35.7469 45.1749 35.5017 45.4376 35.1865V36.0139H46.856V31.2333C46.856 30.7429 46.7334 30.3139 46.4883 29.9462C46.2431 29.5697 45.906 29.2764 45.477 29.0662C45.0479 28.8561 44.5532 28.751 43.9929 28.751C43.5463 28.751 43.1217 28.8298 42.7189 28.9874C42.3249 29.1363 41.979 29.342 41.6813 29.6047C41.3924 29.8674 41.1779 30.1738 41.0378 30.5241L42.2724 31.1413C42.4124 30.8086 42.627 30.5416 42.9159 30.3402C43.2136 30.1388 43.5595 30.0381 43.9535 30.0381C44.3825 30.0381 44.724 30.1519 44.9779 30.3796C45.2406 30.5985 45.3719 30.883 45.3719 31.2333V31.5091L43.1129 31.8768C42.2899 32.0169 41.6813 32.2883 41.2873 32.6911C40.9021 33.0851 40.7095 33.5667 40.7095 34.1358C40.7095 34.7487 40.9327 35.2434 41.3793 35.6199C41.8258 35.9876 42.4081 36.1715 43.126 36.1715ZM42.2592 34.0833C42.2592 33.8031 42.3512 33.5711 42.535 33.3872C42.7189 33.2033 43.0078 33.0807 43.4018 33.0194L45.3719 32.678V33.0588C45.3719 33.4178 45.2843 33.7462 45.1092 34.0439C44.9429 34.3416 44.7108 34.578 44.4131 34.7531C44.1154 34.9194 43.7652 35.0026 43.3624 35.0026C43.0385 35.0026 42.7714 34.9194 42.5613 34.7531C42.3599 34.578 42.2592 34.3547 42.2592 34.0833ZM48.3286 36.0139H49.8127V31.8243C49.8127 31.2989 49.9616 30.8874 50.2592 30.5897C50.5569 30.2833 50.9334 30.13 51.3887 30.13C51.8528 30.13 52.2293 30.2833 52.5182 30.5897C52.8159 30.8874 52.9648 31.2989 52.9648 31.8243V36.0139H54.4357V31.4171C54.4357 30.8918 54.3175 30.4321 54.0811 30.0381C53.8535 29.6353 53.5383 29.3201 53.1355 29.0925C52.7328 28.8648 52.2731 28.751 51.7565 28.751C51.3187 28.751 50.9247 28.8386 50.5745 29.0137C50.2242 29.1888 49.9484 29.4427 49.747 29.7754V28.9086H48.3286V36.0139ZM59.1368 36.1715C59.6271 36.1715 60.0824 36.084 60.5027 35.9088C60.9229 35.7337 61.2863 35.4973 61.5928 35.1996C61.908 34.8932 62.1356 34.5517 62.2757 34.1752L60.9755 33.5579C60.8179 33.9344 60.5771 34.2365 60.2531 34.4641C59.9379 34.683 59.5658 34.7925 59.1368 34.7925C58.734 34.7925 58.3706 34.6918 58.0467 34.4904C57.7315 34.289 57.4819 34.0132 57.2981 33.663C57.1142 33.304 57.0223 32.9012 57.0223 32.4547C57.0223 31.9994 57.1142 31.601 57.2981 31.2595C57.4819 30.9093 57.7315 30.6335 58.0467 30.4321C58.3706 30.2307 58.734 30.13 59.1368 30.13C59.5658 30.13 59.9423 30.2439 60.2663 30.4715C60.5902 30.6904 60.8266 30.9837 60.9755 31.3515L62.2757 30.7473C62.1269 30.3533 61.8948 30.0075 61.5796 29.7098C61.2732 29.4033 60.9098 29.1669 60.4895 29.0006C60.0693 28.8342 59.6183 28.751 59.1368 28.751C58.4276 28.751 57.7971 28.913 57.2455 29.237C56.6939 29.5522 56.2605 29.99 55.9453 30.5503C55.6301 31.1019 55.4725 31.7323 55.4725 32.4416C55.4725 33.1508 55.6301 33.7856 55.9453 34.3459C56.2605 34.9063 56.6939 35.3529 57.2455 35.6856C57.7971 36.0095 58.4276 36.1715 59.1368 36.1715ZM66.7995 36.1715C67.5263 36.1715 68.1567 36.0052 68.6908 35.6724C69.2336 35.3397 69.6145 34.9194 69.8334 34.4116L68.6251 33.8206C68.45 34.1183 68.2092 34.3678 67.9028 34.5692C67.6051 34.7618 67.2417 34.8582 66.8127 34.8582C66.2523 34.8582 65.7751 34.683 65.3811 34.3328C64.9871 33.9738 64.7682 33.4923 64.7244 32.8881H70.0041C70.0304 32.783 70.0479 32.6692 70.0567 32.5466C70.0654 32.4241 70.0698 32.3059 70.0698 32.192C70.0698 31.5791 69.9341 31.0144 69.6627 30.4978C69.4 29.9724 69.0147 29.5522 68.5069 29.237C68.0078 28.913 67.3993 28.751 66.6813 28.751C66.0159 28.751 65.4161 28.913 64.882 29.237C64.3567 29.5522 63.9408 29.99 63.6343 30.5503C63.3279 31.1019 63.1746 31.7323 63.1746 32.4416C63.1746 33.142 63.3279 33.7768 63.6343 34.3459C63.9495 34.9063 64.3786 35.3529 64.9214 35.6856C65.4643 36.0095 66.0903 36.1715 66.7995 36.1715ZM66.6813 29.9987C67.1804 29.9987 67.6007 30.1563 67.9422 30.4715C68.2836 30.7867 68.4675 31.1982 68.4938 31.7061H64.7507C64.8382 31.1632 65.0615 30.7429 65.4205 30.4453C65.7795 30.1476 66.1998 29.9987 66.6813 29.9987ZM76.861 36.1715C77.5177 36.1715 78.0956 36.0533 78.5947 35.8169C79.1025 35.5805 79.4965 35.2522 79.7767 34.8319C80.0569 34.4029 80.197 33.9169 80.197 33.3741C80.197 32.087 79.4133 31.1982 77.846 30.7079L76.1387 30.1694C75.7272 30.0469 75.4207 29.863 75.2193 29.6178C75.0179 29.3727 74.9172 29.0925 74.9172 28.7773C74.9172 28.3658 75.0661 28.0374 75.3638 27.7923C75.6702 27.5471 76.0643 27.4245 76.5458 27.4245C77.0887 27.4245 77.5615 27.5646 77.9643 27.8448C78.367 28.125 78.6647 28.5234 78.8573 29.04L80.1444 28.4752C79.9868 28.0024 79.7329 27.5865 79.3827 27.2275C79.0412 26.8685 78.6297 26.5883 78.1481 26.387C77.6666 26.1768 77.1325 26.0717 76.5458 26.0717C75.9329 26.0717 75.3857 26.19 74.9041 26.4264C74.4313 26.6628 74.0592 26.9911 73.7878 27.4114C73.5163 27.8229 73.3806 28.3045 73.3806 28.8561C73.3806 29.4865 73.5732 30.0381 73.9585 30.5109C74.3437 30.975 74.9041 31.3208 75.6396 31.5485L77.4783 32.1264C77.8636 32.2489 78.1569 32.4153 78.3583 32.6254C78.5684 32.8356 78.6735 33.1201 78.6735 33.4791C78.6735 33.8819 78.5115 34.2059 78.1875 34.451C77.8723 34.6874 77.452 34.8056 76.9267 34.8056C76.3313 34.8056 75.8016 34.6436 75.3375 34.3197C74.8822 33.9957 74.5407 33.5317 74.3131 32.9275L72.9997 33.4791C73.1749 34.0045 73.4463 34.4685 73.814 34.8713C74.1818 35.2741 74.6239 35.5936 75.1405 35.83C75.6659 36.0577 76.2394 36.1715 76.861 36.1715ZM84.6028 36.0927C84.7254 36.0927 84.8611 36.084 85.0099 36.0665C85.1588 36.0489 85.2901 36.0314 85.4039 36.0139V34.74C85.2376 34.7662 85.0756 34.7794 84.918 34.7794C84.489 34.7794 84.1825 34.6787 83.9986 34.4773C83.8235 34.2671 83.736 33.9826 83.736 33.6236V30.2482H85.3514V28.9086H83.736V27.28H82.2519V27.8317C82.2519 28.1644 82.1599 28.427 81.9761 28.6197C81.7922 28.8123 81.5339 28.9086 81.2012 28.9086H81.0042V30.2482H82.2519V33.6893C82.2519 34.451 82.4576 35.042 82.8692 35.4623C83.2807 35.8826 83.8586 36.0927 84.6028 36.0927ZM88.6531 36.1715C89.1434 36.1715 89.5856 36.0883 89.9796 35.922C90.3736 35.7469 90.7019 35.5017 90.9646 35.1865V36.0139H92.383V31.2333C92.383 30.7429 92.2605 30.3139 92.0153 29.9462C91.7701 29.5697 91.433 29.2764 91.004 29.0662C90.575 28.8561 90.0803 28.751 89.5199 28.751C89.0734 28.751 88.6487 28.8298 88.2459 28.9874C87.8519 29.1363 87.5061 29.342 87.2084 29.6047C86.9194 29.8674 86.7049 30.1738 86.5648 30.5241L87.7994 31.1413C87.9395 30.8086 88.154 30.5416 88.4429 30.3402C88.7406 30.1388 89.0865 30.0381 89.4805 30.0381C89.9095 30.0381 90.251 30.1519 90.5049 30.3796C90.7676 30.5985 90.8989 30.883 90.8989 31.2333V31.5091L88.64 31.8768C87.8169 32.0169 87.2084 32.2883 86.8144 32.6911C86.4291 33.0851 86.2365 33.5667 86.2365 34.1358C86.2365 34.7487 86.4598 35.2434 86.9063 35.6199C87.3529 35.9876 87.9351 36.1715 88.6531 36.1715ZM87.7863 34.0833C87.7863 33.8031 87.8782 33.5711 88.0621 33.3872C88.2459 33.2033 88.5349 33.0807 88.9289 33.0194L90.8989 32.678V33.0588C90.8989 33.4178 90.8114 33.7462 90.6363 34.0439C90.4699 34.3416 90.2379 34.578 89.9402 34.7531C89.6425 34.9194 89.2923 35.0026 88.8895 35.0026C88.5655 35.0026 88.2985 34.9194 88.0883 34.7531C87.887 34.578 87.7863 34.3547 87.7863 34.0833ZM96.8007 36.0927C96.9232 36.0927 97.059 36.084 97.2078 36.0665C97.3567 36.0489 97.488 36.0314 97.6018 36.0139V34.74C97.4355 34.7662 97.2735 34.7794 97.1159 34.7794C96.6868 34.7794 96.3804 34.6787 96.1965 34.4773C96.0214 34.2671 95.9338 33.9826 95.9338 33.6236V30.2482H97.5493V28.9086H95.9338V27.28H94.4497V27.8317C94.4497 28.1644 94.3578 28.427 94.1739 28.6197C93.9901 28.8123 93.7318 28.9086 93.3991 28.9086H93.202V30.2482H94.4497V33.6893C94.4497 34.451 94.6555 35.042 95.067 35.4623C95.4785 35.8826 96.0564 36.0927 96.8007 36.0927ZM98.7874 27.9367H100.272V26.2294H98.7874V27.9367ZM98.7874 36.0139H100.272V28.9086H98.7874V36.0139ZM104.371 36.1715C104.896 36.1715 105.356 36.084 105.75 35.9088C106.153 35.725 106.463 35.4754 106.682 35.1602C106.901 34.8363 107.011 34.4641 107.011 34.0439C107.011 33.5535 106.853 33.1333 106.538 32.783C106.223 32.4241 105.772 32.1614 105.185 31.995L104.029 31.6535C103.81 31.5835 103.605 31.4872 103.412 31.3646C103.219 31.242 103.123 31.0582 103.123 30.813C103.123 30.5591 103.219 30.3577 103.412 30.2088C103.605 30.06 103.863 29.9856 104.187 29.9856C104.563 29.9856 104.9 30.0863 105.198 30.2876C105.505 30.489 105.728 30.7605 105.868 31.1019L107.011 30.5635C106.8 29.9943 106.442 29.5522 105.934 29.237C105.426 28.913 104.848 28.751 104.2 28.751C103.718 28.751 103.285 28.8429 102.9 29.0268C102.515 29.2019 102.212 29.4471 101.994 29.7623C101.775 30.0775 101.665 30.4496 101.665 30.8787C101.665 31.3602 101.814 31.7761 102.112 32.1264C102.418 32.4766 102.878 32.7393 103.491 32.9144L104.607 33.2296C104.835 33.2909 105.049 33.3872 105.251 33.5185C105.452 33.6411 105.553 33.8294 105.553 34.0833C105.553 34.3547 105.443 34.5692 105.224 34.7268C105.006 34.8844 104.721 34.9632 104.371 34.9632C103.959 34.9632 103.583 34.845 103.241 34.6086C102.909 34.3722 102.646 34.0526 102.453 33.6499L101.311 34.1883C101.53 34.7925 101.91 35.2741 102.453 35.633C103.005 35.992 103.644 36.1715 104.371 36.1715ZM111.275 36.0927C111.398 36.0927 111.534 36.084 111.683 36.0665C111.831 36.0489 111.963 36.0314 112.077 36.0139V34.74C111.91 34.7662 111.748 34.7794 111.591 34.7794C111.162 34.7794 110.855 34.6787 110.671 34.4773C110.496 34.2671 110.409 33.9826 110.409 33.6236V30.2482H112.024V28.9086H110.409V27.28H108.924V27.8317C108.924 28.1644 108.833 28.427 108.649 28.6197C108.465 28.8123 108.206 28.9086 107.874 28.9086H107.677V30.2482H108.924V33.6893C108.924 34.451 109.13 35.042 109.542 35.4623C109.953 35.8826 110.531 36.0927 111.275 36.0927ZM113.262 27.9367H114.746V26.2294H113.262V27.9367ZM113.262 36.0139H114.746V28.9086H113.262V36.0139ZM119.594 36.1715C120.084 36.1715 120.54 36.084 120.96 35.9088C121.38 35.7337 121.744 35.4973 122.05 35.1996C122.365 34.8932 122.593 34.5517 122.733 34.1752L121.433 33.5579C121.275 33.9344 121.034 34.2365 120.71 34.4641C120.395 34.683 120.023 34.7925 119.594 34.7925C119.191 34.7925 118.828 34.6918 118.504 34.4904C118.189 34.289 117.939 34.0132 117.755 33.663C117.572 33.304 117.48 32.9012 117.48 32.4547C117.48 31.9994 117.572 31.601 117.755 31.2595C117.939 30.9093 118.189 30.6335 118.504 30.4321C118.828 30.2307 119.191 30.13 119.594 30.13C120.023 30.13 120.4 30.2439 120.724 30.4715C121.048 30.6904 121.284 30.9837 121.433 31.3515L122.733 30.7473C122.584 30.3533 122.352 30.0075 122.037 29.7098C121.731 29.4033 121.367 29.1669 120.947 29.0006C120.527 28.8342 120.076 28.751 119.594 28.751C118.885 28.751 118.254 28.913 117.703 29.237C117.151 29.5522 116.718 29.99 116.403 30.5503C116.087 31.1019 115.93 31.7323 115.93 32.4416C115.93 33.1508 116.087 33.7856 116.403 34.3459C116.718 34.9063 117.151 35.3529 117.703 35.6856C118.254 36.0095 118.885 36.1715 119.594 36.1715ZM126.548 36.1715C127.073 36.1715 127.533 36.084 127.927 35.9088C128.329 35.725 128.64 35.4754 128.859 35.1602C129.078 34.8363 129.188 34.4641 129.188 34.0439C129.188 33.5535 129.03 33.1333 128.715 32.783C128.399 32.4241 127.949 32.1614 127.362 31.995L126.206 31.6535C125.987 31.5835 125.782 31.4872 125.589 31.3646C125.396 31.242 125.3 31.0582 125.3 30.813C125.3 30.5591 125.396 30.3577 125.589 30.2088C125.782 30.06 126.04 29.9856 126.364 29.9856C126.74 29.9856 127.077 30.0863 127.375 30.2876C127.682 30.489 127.905 30.7605 128.045 31.1019L129.188 30.5635C128.977 29.9943 128.618 29.5522 128.111 29.237C127.603 28.913 127.025 28.751 126.377 28.751C125.895 28.751 125.462 28.8429 125.077 29.0268C124.691 29.2019 124.389 29.4471 124.17 29.7623C123.952 30.0775 123.842 30.4496 123.842 30.8787C123.842 31.3602 123.991 31.7761 124.289 32.1264C124.595 32.4766 125.055 32.7393 125.668 32.9144L126.784 33.2296C127.012 33.2909 127.226 33.3872 127.428 33.5185C127.629 33.6411 127.73 33.8294 127.73 34.0833C127.73 34.3547 127.62 34.5692 127.401 34.7268C127.182 34.8844 126.898 34.9632 126.548 34.9632C126.136 34.9632 125.76 34.845 125.418 34.6086C125.085 34.3722 124.823 34.0526 124.63 33.6499L123.488 34.1883C123.706 34.7925 124.087 35.2741 124.63 35.633C125.182 35.992 125.821 36.1715 126.548 36.1715Z" fill="#90A3BF"/>
<g clip-path="url(#clip1_138_6116)">
<path d="M23.9772 186.029L22.7856 186.558C21.7082 187.037 21.0139 188.106 21.0139 189.285V317.118C21.0139 318.765 22.3496 320.101 23.9972 320.101H417.788C419.436 320.101 420.771 318.765 420.771 317.118V173.784C420.771 173.383 420.685 172.986 420.519 172.621C419.403 170.166 415.804 170.541 415.219 173.174L414.306 177.284C413.707 179.982 410.077 180.484 408.767 178.051L408.191 176.982C407.671 176.015 406.662 175.413 405.565 175.413H399.268C397.884 175.413 396.681 174.46 396.364 173.113L394.224 164.018C394.032 163.2 393.503 162.501 392.769 162.093L389.316 160.175C388.087 159.492 386.548 159.761 385.622 160.819L385.418 161.053C383.9 162.788 381.071 162.219 380.342 160.032L377.612 151.84C377.547 151.645 377.502 151.444 377.478 151.239L375.396 133.188C375.318 132.519 375.017 131.896 374.542 131.42L372.29 129.169C370.65 127.529 367.849 128.305 367.286 130.555L366.475 133.8C366.066 135.434 364.074 136.058 362.807 134.949C361.448 133.76 359.312 134.573 359.088 136.364L355.629 164.04C355.219 167.318 350.576 167.599 349.774 164.394L348.427 159.005C348.066 156.026 343.716 156.116 343.478 159.107L342.768 168.03C342.481 171.643 337.211 171.713 336.828 168.109L336.631 166.263C336.544 165.439 336.118 164.689 335.455 164.192L333.511 162.734L331.754 161.27C330.542 160.26 328.691 160.935 328.414 162.488C327.985 164.891 324.471 164.677 324.337 162.239L322.072 121.022C321.952 118.833 318.953 118.319 318.11 120.342C317.94 120.749 317.645 121.091 317.267 121.317L314.466 122.998C312.58 124.129 310.159 122.9 309.96 120.71L306.539 83.0802C306.303 80.4788 303.074 79.416 301.339 81.3684L300.583 82.2186C300.171 82.6824 299.913 83.2631 299.847 83.88L297.065 109.608C297 110.206 296.756 110.771 296.364 111.229L293.849 114.163C293.034 115.114 291.71 115.455 290.537 115.015L289.879 114.768C288.134 114.114 286.222 115.202 285.895 117.037L285.061 121.708C284.505 124.82 280.124 125.043 279.255 122.003L278.703 120.071C278.461 119.222 277.854 118.523 277.047 118.165L272.499 116.144C271.925 115.888 271.464 115.432 271.204 114.859C270.17 112.583 266.822 112.977 266.345 115.432L263.128 131.979C262.855 133.381 261.627 134.393 260.199 134.393H254.546C253.177 134.393 251.984 135.325 251.652 136.653L250.262 142.214C250.096 142.877 249.5 143.343 248.816 143.343C248.175 143.343 247.605 143.753 247.402 144.362L246.532 146.971C245.66 149.588 242.009 149.721 240.948 147.175L240.445 145.968C240.338 145.711 240.195 145.47 240.021 145.252L237.766 142.433C237.46 142.051 237.253 141.6 237.163 141.119L235.14 130.329C235.089 130.056 235 129.792 234.876 129.544L233.071 125.934C232.909 125.609 232.807 125.258 232.771 124.897L231.082 108.007C230.858 105.768 228.331 104.574 226.459 105.822L224.973 106.812C224.274 107.278 223.804 108.017 223.678 108.847L220.395 130.514C220.241 131.535 219.57 132.403 218.621 132.809L217.736 133.189C216.195 133.849 214.413 133.111 213.791 131.555L212.238 127.674C211.431 125.656 208.762 125.233 207.37 126.903C206.951 127.406 206.372 127.751 205.729 127.879L198.117 129.402C196.642 129.697 195.178 128.847 194.702 127.42L191.999 119.312C191.872 118.928 191.667 118.575 191.399 118.273L190.128 116.844C188.438 114.942 185.297 115.893 184.944 118.412L181.243 144.846C180.947 146.963 178.587 148.09 176.754 146.991L169.99 142.932C168.053 141.77 165.578 143.098 165.475 145.355L162.795 204.328C162.748 205.362 162.168 206.297 161.263 206.8L156.52 209.435C156.181 209.623 155.882 209.876 155.64 210.179L150.272 216.888C150.118 217.081 149.988 217.292 149.886 217.517L146.485 225C146.369 225.254 146.29 225.522 146.249 225.798L143.705 242.973C143.488 244.436 142.233 245.519 140.754 245.519H138.474C136.982 245.519 135.719 246.621 135.518 248.1L134.293 257.082C133.991 259.295 131.455 260.404 129.626 259.123L127.124 257.372C126.513 256.944 126.084 256.303 125.922 255.575L124.282 248.192C123.79 245.981 121.11 245.102 119.405 246.594L117.886 247.923C117.454 248.302 117.14 248.797 116.982 249.349L114.929 256.536C114.362 258.519 111.519 258.424 111.087 256.406C110.609 254.177 107.362 254.387 107.175 256.659L104.304 291.586C104.1 294.071 101.118 295.224 99.2954 293.523L93.3727 287.995C92.8803 287.535 92.5579 286.923 92.4579 286.257L90.5708 273.676C90.446 272.843 89.9755 272.103 89.2754 271.636L89.1987 271.585C88.5208 271.133 88.0573 270.423 87.9157 269.621L86.1884 259.833C86.009 258.817 85.3169 257.965 84.3585 257.582L81.1712 256.307C79.7407 255.735 78.1382 256.581 77.804 258.085C77.2293 260.671 73.5535 260.702 72.9351 258.126L71.1463 250.672C71.0393 250.226 70.8308 249.811 70.5372 249.459L68.149 246.593C67.5822 245.913 66.7426 245.519 65.8572 245.519H65.5069C64.7157 245.519 63.9569 245.205 63.3975 244.646L62.2203 243.469C61.238 242.486 59.7077 242.312 58.5297 243.048L55.5655 244.901C54.9291 245.299 54.466 245.922 54.2685 246.646L54.1002 247.263C53.239 250.42 48.6569 250.088 48.2607 246.839L46.5763 233.027C46.4494 231.986 45.785 231.088 44.8266 230.662L41.0702 228.993C40.1854 228.6 39.5464 227.801 39.3565 226.852L38.5301 222.72C38.3194 221.666 37.3943 220.908 36.3198 220.908C35.2304 220.908 34.297 220.128 34.1021 219.057L33.1395 213.763C33.028 213.149 32.4939 212.704 31.8706 212.704C31.2106 212.704 30.6571 212.205 30.588 211.549L28.1557 188.443C27.9437 186.428 25.8284 185.206 23.9772 186.029Z" fill="url(#paint0_linear_138_6116)"/>
<path d="M21.0139 187.346L23.9772 186.029C25.8284 185.206 27.9437 186.428 28.1557 188.443L30.588 211.549C30.6571 212.205 31.2106 212.704 31.8706 212.704V212.704C32.4939 212.704 33.028 213.149 33.1395 213.763L34.1021 219.057C34.297 220.128 35.2304 220.908 36.3198 220.908V220.908C37.3943 220.908 38.3194 221.666 38.5301 222.72L39.3565 226.852C39.5464 227.801 40.1854 228.599 41.0702 228.993L44.8266 230.662C45.785 231.088 46.4494 231.986 46.5763 233.027L48.2607 246.839C48.6569 250.088 53.239 250.42 54.1002 247.263L54.2685 246.646C54.466 245.922 54.9291 245.299 55.5655 244.901L58.5297 243.048C59.7077 242.312 61.238 242.486 62.2203 243.469L63.3975 244.646C63.9569 245.205 64.7157 245.519 65.5069 245.519H65.8572C66.7426 245.519 67.5822 245.913 68.149 246.593L70.5372 249.459C70.8308 249.811 71.0393 250.226 71.1463 250.672L72.9351 258.126C73.5535 260.702 77.2293 260.671 77.804 258.085V258.085C78.1383 256.581 79.7407 255.735 81.1712 256.307L84.3585 257.582C85.3169 257.965 86.009 258.817 86.1884 259.833L87.9157 269.621C88.0573 270.423 88.5208 271.133 89.1987 271.585L89.2754 271.636C89.9755 272.103 90.446 272.843 90.5708 273.676L92.4579 286.257C92.5579 286.923 92.8803 287.535 93.3727 287.995L99.2954 293.523C101.118 295.224 104.1 294.071 104.304 291.586L107.175 256.659C107.362 254.387 110.609 254.177 111.087 256.406V256.406C111.519 258.424 114.362 258.519 114.929 256.536L116.982 249.349C117.14 248.797 117.454 248.302 117.886 247.923L119.405 246.594C121.11 245.102 123.79 245.981 124.282 248.192L125.922 255.575C126.084 256.303 126.513 256.944 127.124 257.372L129.626 259.123C131.455 260.404 133.991 259.295 134.293 257.082L135.518 248.1C135.719 246.621 136.982 245.519 138.474 245.519H140.754C142.233 245.519 143.488 244.436 143.705 242.973L146.249 225.798C146.29 225.522 146.369 225.254 146.485 225L149.886 217.517C149.988 217.292 150.118 217.081 150.272 216.888L155.64 210.179C155.882 209.876 156.181 209.623 156.52 209.435L161.263 206.8C162.168 206.297 162.748 205.362 162.795 204.328L165.475 145.355C165.578 143.098 168.053 141.77 169.99 142.932L176.754 146.991C178.587 148.09 180.947 146.963 181.243 144.846L184.944 118.412C185.297 115.893 188.438 114.942 190.128 116.844L191.399 118.273C191.667 118.575 191.872 118.928 191.999 119.312L194.702 127.42C195.178 128.847 196.642 129.697 198.117 129.402L205.729 127.879C206.372 127.751 206.951 127.406 207.37 126.903V126.903C208.762 125.233 211.431 125.656 212.238 127.674L213.791 131.555C214.413 133.111 216.195 133.849 217.736 133.189L218.621 132.809C219.57 132.403 220.241 131.535 220.395 130.514L223.678 108.847C223.804 108.017 224.274 107.278 224.973 106.812L226.459 105.822C228.331 104.574 230.858 105.768 231.082 108.007L232.771 124.897C232.807 125.258 232.909 125.609 233.071 125.934L234.876 129.544C235 129.792 235.089 130.056 235.14 130.329L237.163 141.119C237.253 141.6 237.46 142.051 237.766 142.433L240.021 145.252C240.195 145.47 240.338 145.711 240.445 145.968L240.948 147.175C242.009 149.721 245.66 149.588 246.532 146.971L247.402 144.362C247.605 143.753 248.175 143.343 248.816 143.343V143.343C249.5 143.343 250.096 142.877 250.262 142.214L251.652 136.653C251.984 135.325 253.177 134.393 254.546 134.393H260.199C261.627 134.393 262.855 133.381 263.128 131.979L266.345 115.432C266.822 112.977 270.17 112.583 271.204 114.859V114.859C271.464 115.432 271.925 115.888 272.499 116.144L277.047 118.165C277.854 118.523 278.461 119.222 278.703 120.071L279.255 122.003C280.124 125.043 284.505 124.82 285.061 121.708L285.895 117.037C286.222 115.202 288.134 114.114 289.879 114.768L290.537 115.015C291.71 115.455 293.034 115.114 293.849 114.163L296.364 111.229C296.756 110.771 297 110.206 297.065 109.608L299.847 83.88C299.913 83.2631 300.171 82.6824 300.583 82.2186L301.339 81.3684C303.074 79.416 306.303 80.4788 306.539 83.0802L309.96 120.71C310.159 122.9 312.58 124.129 314.466 122.998L317.267 121.317C317.645 121.091 317.94 120.749 318.11 120.342V120.342C318.953 118.319 321.952 118.833 322.072 121.022L324.337 162.239C324.471 164.677 327.985 164.891 328.414 162.488V162.488C328.691 160.935 330.542 160.26 331.754 161.27L333.511 162.734L335.455 164.192C336.118 164.689 336.544 165.439 336.631 166.263L336.828 168.109C337.211 171.713 342.481 171.643 342.768 168.03L343.478 159.107C343.716 156.116 348.066 156.026 348.427 159.005V159.005L349.774 164.394C350.576 167.599 355.219 167.318 355.629 164.04L359.088 136.364C359.312 134.573 361.448 133.76 362.807 134.949V134.949C364.074 136.058 366.066 135.434 366.475 133.8L367.286 130.555C367.849 128.305 370.65 127.529 372.29 129.169L374.541 131.42C375.017 131.896 375.318 132.519 375.396 133.188L377.478 151.239C377.502 151.444 377.547 151.645 377.612 151.84L380.342 160.032C381.071 162.219 383.9 162.788 385.418 161.053L385.622 160.819C386.548 159.761 388.087 159.492 389.316 160.175L392.769 162.093C393.503 162.501 394.032 163.2 394.224 164.018L396.364 173.113C396.681 174.46 397.884 175.413 399.268 175.413H405.565C406.662 175.413 407.671 176.015 408.191 176.982L408.767 178.051C410.077 180.484 413.706 179.982 414.306 177.284L415.106 173.682C415.728 170.886 419.586 170.568 420.771 173.175V173.175" stroke="#659711" stroke-width="1.97005"/>
</g>
<defs>
<linearGradient id="paint0_linear_138_6116" x1="195.035" y1="-826.106" x2="220.893" y2="337.255" gradientUnits="userSpaceOnUse">
<stop stop-color="#659711"/>
<stop offset="1" stop-color="#659711" stop-opacity="0"/>
</linearGradient>
<clipPath id="clip0_138_6116">
<rect width="277.12" height="133.963" fill="white" transform="translate(21.0139 125.426)"/>
</clipPath>
<clipPath id="clip1_138_6116">
<rect width="277.12" height="187.811" fill="white" transform="translate(21.0139 76.175)"/>
</clipPath>
</defs>
</svg>
