<svg width="32" height="32" viewBox="0 0 32 32" fill="none" xmlns="http://www.w3.org/2000/svg">
<rect width="32" height="32" rx="6" fill="#7C5CFC"/>
<path d="M11.52 17.92C10.9184 17.92 10.3616 18.1312 9.91996 18.4832C9.33116 18.9504 8.95996 19.6736 8.95996 20.48C8.95996 21.8944 10.1056 23.04 11.52 23.04C12.1664 23.04 12.7552 22.7968 13.2096 22.4C13.7408 21.9328 14.08 21.248 14.08 20.48C14.08 19.0656 12.9344 17.92 11.52 17.92ZM12.16 20.64C12.16 20.8064 12.0704 20.9664 11.9296 21.0496L11.1296 21.5296C11.0528 21.5808 10.9632 21.6 10.88 21.6C10.72 21.6 10.56 21.5168 10.4704 21.3696C10.336 21.1392 10.4064 20.8448 10.6368 20.7104L11.2064 20.3712V19.68C11.2 19.4176 11.4176 19.2 11.68 19.2C11.9424 19.2 12.16 19.4176 12.16 19.68V20.64Z" fill="white"/>
<path d="M17.8239 10.848V13.28H16.8639V10.848C16.8639 10.6752 16.7103 10.592 16.6079 10.592C16.5759 10.592 16.5439 10.5984 16.5119 10.6112L11.4367 12.5248C11.0975 12.6528 10.8799 12.9728 10.8799 13.3376V13.7664C10.2975 14.2016 9.91992 14.8992 9.91992 15.6864V13.3376C9.91992 12.576 10.3871 11.8976 11.0975 11.6288L16.1791 9.7088C16.3199 9.6576 16.4671 9.632 16.6079 9.632C17.2479 9.632 17.8239 10.1504 17.8239 10.848Z" fill="white"/>
<path d="M22.0797 17.6V18.24C22.0797 18.4128 21.9453 18.5536 21.7661 18.56H20.8317C20.4925 18.56 20.1853 18.3104 20.1597 17.9776C20.1405 17.7792 20.2173 17.5936 20.3453 17.4656C20.4605 17.344 20.6205 17.28 20.7933 17.28H21.7597C21.9453 17.2864 22.0797 17.4272 22.0797 17.6Z" fill="white"/>
<path d="M20.7871 16.608H21.4399C21.7919 16.608 22.0799 16.32 22.0799 15.968V15.6864C22.0799 14.3616 20.9983 13.28 19.6735 13.28H12.3263C11.7823 13.28 11.2831 13.4592 10.8799 13.7664C10.2975 14.2016 9.91992 14.8992 9.91992 15.6864V16.8256C9.91992 17.0688 10.1759 17.2224 10.4063 17.1456C10.7647 17.024 11.1423 16.96 11.5199 16.96C13.4591 16.96 15.0399 18.5408 15.0399 20.48C15.0399 20.9408 14.9183 21.4464 14.7263 21.8944C14.6239 22.1248 14.7839 22.4 15.0335 22.4H19.6735C20.9983 22.4 22.0799 21.3184 22.0799 19.9936V19.872C22.0799 19.52 21.7919 19.232 21.4399 19.232H20.8831C20.2687 19.232 19.6799 18.8544 19.5199 18.2592C19.3919 17.7728 19.5455 17.2992 19.8655 16.992C20.1023 16.7488 20.4287 16.608 20.7871 16.608ZM17.2799 16.48H14.0799C13.8175 16.48 13.5999 16.2624 13.5999 16C13.5999 15.7376 13.8175 15.52 14.0799 15.52H17.2799C17.5423 15.52 17.7599 15.7376 17.7599 16C17.7599 16.2624 17.5423 16.48 17.2799 16.48Z" fill="white"/>
</svg>
