<svg width="32" height="32" viewBox="0 0 32 32" fill="none" xmlns="http://www.w3.org/2000/svg">
<rect width="32" height="32" rx="6" fill="#7C5CFC"/>
<path d="M18.5597 9.60001H13.4397C11.1997 9.60001 10.2397 10.88 10.2397 12.8V19.2C10.2397 21.12 11.1997 22.4 13.4397 22.4H18.5597C20.7997 22.4 21.7597 21.12 21.7597 19.2V12.8C21.7597 10.88 20.7997 9.60001 18.5597 9.60001ZM13.4397 16.16H15.9997C16.2621 16.16 16.4797 16.3776 16.4797 16.64C16.4797 16.9024 16.2621 17.12 15.9997 17.12H13.4397C13.1773 17.12 12.9597 16.9024 12.9597 16.64C12.9597 16.3776 13.1773 16.16 13.4397 16.16ZM18.5597 19.68H13.4397C13.1773 19.68 12.9597 19.4624 12.9597 19.2C12.9597 18.9376 13.1773 18.72 13.4397 18.72H18.5597C18.8221 18.72 19.0397 18.9376 19.0397 19.2C19.0397 19.4624 18.8221 19.68 18.5597 19.68ZM20.1597 14.24H18.8797C17.9069 14.24 17.1197 13.4528 17.1197 12.48V11.2C17.1197 10.9376 17.3373 10.72 17.5997 10.72C17.8621 10.72 18.0797 10.9376 18.0797 11.2V12.48C18.0797 12.9216 18.4381 13.28 18.8797 13.28H20.1597C20.4221 13.28 20.6397 13.4976 20.6397 13.76C20.6397 14.0224 20.4221 14.24 20.1597 14.24Z" fill="white"/>
</svg>
