<svg width="32" height="32" viewBox="0 0 32 32" fill="none" xmlns="http://www.w3.org/2000/svg">
<rect width="32" height="32" rx="6" fill="#7C5CFC"/>
<path d="M18.0604 12.512H12.0188C11.8396 12.512 11.6732 12.5184 11.5196 12.5248C10.0028 12.6144 9.59961 13.1712 9.59961 14.8992V15.2704C9.59961 15.6224 9.88761 15.9104 10.2396 15.9104H19.8396C20.1916 15.9104 20.4796 15.6224 20.4796 15.2704V14.8992C20.4796 12.992 19.9932 12.512 18.0604 12.512Z" fill="white"/>
<path d="M10.2396 16.8704C9.88761 16.8704 9.59961 17.1584 9.59961 17.5104V19.3728C9.59961 21.28 10.086 21.76 12.0188 21.76H18.0604C19.9612 21.76 20.4604 21.2992 20.4796 19.4752V17.5104C20.4796 17.1584 20.1916 16.8704 19.8396 16.8704H10.2396ZM12.774 20.1984H11.6796C11.4172 20.1984 11.1996 19.9808 11.1996 19.7184C11.1996 19.456 11.4172 19.2384 11.6796 19.2384H12.7804C13.0428 19.2384 13.2604 19.456 13.2604 19.7184C13.2604 19.9808 13.0428 20.1984 12.774 20.1984ZM16.3516 20.1984H14.15C13.8876 20.1984 13.67 19.9808 13.67 19.7184C13.67 19.456 13.8876 19.2384 14.15 19.2384H16.3516C16.614 19.2384 16.8316 19.456 16.8316 19.7184C16.8316 19.9808 16.6204 20.1984 16.3516 20.1984Z" fill="white"/>
<path d="M22.4 16.8512V13.4976C22.4 11.4944 21.2544 10.624 19.5264 10.624H13.8112C13.3248 10.624 12.8896 10.6944 12.5056 10.8416C12.2048 10.9504 11.936 11.1104 11.7184 11.3216C11.6032 11.4304 11.6928 11.6096 11.8592 11.6096H18.816C20.256 11.6096 21.4208 12.7744 21.4208 14.2144V18.8032C21.4208 18.9632 21.5936 19.0528 21.7088 18.9376C22.1504 18.4704 22.4 17.7856 22.4 16.8512Z" fill="white"/>
</svg>
